<?xml version="1.0" encoding="utf-8"?>
<!-- Generator: Adobe Illustrator 16.0.4, SVG Export Plug-In . SVG Version: 6.00 Build 0)  -->
<!DOCTYPE svg PUBLIC "-//W3C//DTD SVG 1.1//EN" "http://www.w3.org/Graphics/SVG/1.1/DTD/svg11.dtd">
<svg version="1.1" id="Layer_1" xmlns="http://www.w3.org/2000/svg" xmlns:xlink="http://www.w3.org/1999/xlink" x="0px" y="0px"
	 viewBox="0 0 160.555 183.717" enable-background="new 0 0 160.555 183.717" width="21" height="21"
	 xml:space="preserve">
<g>
	<path class="st0" fill="#454F56" d="M80.272,0C40.375,0,0,13.296,0,38.71v35.434v35.432v35.434c0,25.414,40.384,38.71,80.272,38.71
		c38.675,0,77.694-12.534,80.051-36.44h0.23v-2.27v-35.434V74.144V38.71C160.544,13.296,120.168,0,80.272,0z M17.716,145.008
		c0-2.294,1.949-4.916,5.457-7.503c15.289,7.104,36.23,10.781,57.101,10.781c20.869,0,41.818-3.678,57.1-10.781
		c3.518,2.596,5.457,5.209,5.457,7.503c0,8.354-24.945,20.994-62.557,20.994C42.66,166.003,17.716,153.362,17.716,145.008z
		 M80.272,17.716c37.61,0,62.557,12.632,62.557,20.994c0,2.294-1.949,4.917-5.457,7.503c-2.561,1.887-5.971,3.747-10.15,5.465
		c-4.358,1.79-9.506,3.428-15.404,4.739c-8.982,2.002-19.621,3.276-31.544,3.276s-22.554-1.274-31.544-3.276
		c-5.908-1.312-11.046-2.95-15.404-4.739c-4.181-1.718-7.6-3.587-10.151-5.465c-3.517-2.596-5.457-5.208-5.457-7.503
		C17.716,30.357,42.66,17.716,80.272,17.716z M142.829,74.144c0,2.295-1.949,4.916-5.457,7.504
		c-2.561,1.887-5.971,3.746-10.15,5.465c-4.358,1.789-9.506,3.429-15.404,4.738c-8.982,2.002-19.621,3.277-31.544,3.277
		s-22.553-1.275-31.544-3.277c-5.908-1.311-11.046-2.949-15.404-4.738c-4.181-1.719-7.6-3.588-10.151-5.465
		c-3.517-2.597-5.457-5.209-5.457-7.504s1.949-4.917,5.457-7.504c6.928,3.226,14.997,5.723,23.731,7.504
		c10.532,2.152,21.959,3.277,33.369,3.277s22.836-1.125,33.369-3.277c8.732-1.781,16.803-4.288,23.729-7.504
		C140.888,69.227,142.829,71.849,142.829,74.144z M142.829,109.575c0,2.295-1.949,4.916-5.457,7.504
		c-2.561,1.888-5.971,3.746-10.15,5.466c-4.358,1.789-9.506,3.428-15.404,4.737c-8.982,2.002-19.621,3.279-31.544,3.279
		s-22.553-1.277-31.544-3.279c-5.908-1.311-11.046-2.948-15.404-4.737c-4.181-1.72-7.6-3.588-10.151-5.466
		c-3.517-2.596-5.457-5.209-5.457-7.504c0-2.293,1.949-4.916,5.457-7.502c6.928,3.225,14.997,5.723,23.731,7.502
		c10.532,2.152,21.959,3.277,33.369,3.277s22.836-1.125,33.369-3.277c8.732-1.779,16.803-4.287,23.729-7.502
		C140.888,104.659,142.829,107.282,142.829,109.575z"/>
</g>
</svg>
