<svg id="Capa_1" data-name="Capa 1" xmlns="http://www.w3.org/2000/svg" viewBox="0 0 295.46 295.45" width="21" height="21">
    <defs>
        <style>.cls-1{fill:#384046;}.cls-2{fill:#72ad25;}.cls-3{fill:#fff;}</style>
    </defs>
    <title>dashboard_running</title>
    <path class="cls-1" d="M295.46,135.35A23.2,23.2,0,0,0,276,112.06l-16.32-2.77a119.08,119.08,0,0,0-5.57-13.47l9.61-13.45a23.38,23.38,0,0,0-2.54-30.28L243.49,34.44a23.41,23.41,0,0,0-30.22-2.54l-13.5,9.62a117.51,117.51,0,0,0-14.19-5.84l-2.71-16A23.46,23.46,0,0,0,159.66,0H134.73a23.46,23.46,0,0,0-23.21,19.62L108.7,36.19a115.93,115.93,0,0,0-13.42,5.65L82,32.28a23.49,23.49,0,0,0-30.3,2.51L34,52.44a23.46,23.46,0,0,0-2.54,30.28l9.75,13.69a116.41,116.41,0,0,0-5.5,13.52l-16,2.71A23.46,23.46,0,0,0,0,135.86v24.93A23.46,23.46,0,0,0,19.62,184l16.58,2.83a115.72,115.72,0,0,0,5.65,13.42L32.32,213.5a23.38,23.38,0,0,0,2.54,30.28l17.65,17.65A23.41,23.41,0,0,0,82.73,264l13.69-9.75a118.53,118.53,0,0,0,12.86,5.28L112,275.82a23.46,23.46,0,0,0,23.21,19.63h25a23.46,23.46,0,0,0,23.21-19.62l2.77-16.32a119,119,0,0,0,13.47-5.57l13.43,9.6A23.49,23.49,0,0,0,243.37,261L261,243.37a23.47,23.47,0,0,0,2.54-30.29l-9.62-13.51a118.06,118.06,0,0,0,5.59-13.46l16.31-2.72a23.46,23.46,0,0,0,19.63-23.21V135.35h0Zm-60.25,34.89a89,89,0,0,1-9.67,23.27,14.07,14.07,0,0,0,.64,15.21l12.45,17.55-12.35,12.35L208.82,226.2a13.76,13.76,0,0,0-8.11-2.61,14.14,14.14,0,0,0-7.18,2,88.8,88.8,0,0,1-23.2,9.64A13.77,13.77,0,0,0,160,246.42l-3.58,21.17H139l-3.53-21.18a14,14,0,0,0-10.28-11.2,92.24,92.24,0,0,1-22.8-9.35,14.13,14.13,0,0,0-7-1.85,13.87,13.87,0,0,0-8.13,2.61L69.65,239.17,57.3,226.82l12.4-17.4a14.15,14.15,0,0,0,.6-15.31,87.88,87.88,0,0,1-9.78-23.25,14.15,14.15,0,0,0-11.17-10.19L28,157V139.61l21-3.52a14,14,0,0,0,11.27-10.37,88.57,88.57,0,0,1,9.48-23.3A13.92,13.92,0,0,0,69,87.25L56.47,69.59,68.82,57.24l17.39,12.4a14,14,0,0,0,8.11,2.57,14.18,14.18,0,0,0,7.2-2,87.83,87.83,0,0,1,23.25-9.78A14.15,14.15,0,0,0,135,49.29l3.63-21.36H156l3.52,21a14,14,0,0,0,10.4,11.27A90.27,90.27,0,0,1,193.75,70,14,14,0,0,0,209,69.32l17.36-12.48L238.7,69.18,226.27,86.64a14,14,0,0,0-.65,15.28,88.75,88.75,0,0,1,9.64,23.2,13.78,13.78,0,0,0,11.22,10.32L267.65,139v15.27h-0.06v2.15L246.41,160a14,14,0,0,0-11.2,10.24h0Z" transform="translate(0 0)"/>
    <path class="cls-1" d="M147.76,80.53a67.17,67.17,0,1,0,67.17,67.17,67.17,67.17,0,0,0-67.17-67.17h0Zm0,106.35a39.18,39.18,0,1,1,39.18-39.18,39.18,39.18,0,0,1-39.18,39.18h0Z" transform="translate(0 0)"/>
    <rect class="cls-2" x="147.73" y="147.76" width="139.24" height="139.24" rx="12" ry="12"/>
    <polygon class="cls-3" points="253 216.94 188.94 257 188.94 176.88 253 216.94 253 216.94"/>
</svg>