<svg id="Layer_1" data-name="Layer 1" xmlns="http://www.w3.org/2000/svg" viewBox="0 0 411.43 411.43" width="20" height="20">
    <defs>
        <style>.cls-1{fill:#0080BF;}</style>
    </defs>
    <title>remove</title>
    <g id="g3015">
        <path id="path3017" class="cls-1" d="M421.38,301A16.47,16.47,0,0,0,416.29,289l-48.48-48.48L416.29,192A16.47,16.47,0,0,0,421.38,180a16.78,16.78,0,0,0-5.09-12.32l-24.11-24.11a16.78,16.78,0,0,0-12.32-5.09,16.47,16.47,0,0,0-12.05,5.09L319.32,192l-48.48-48.48a16.47,16.47,0,0,0-12.05-5.09,16.78,16.78,0,0,0-12.32,5.09l-24.11,24.11A16.78,16.78,0,0,0,217.27,180,16.47,16.47,0,0,0,222.36,192l48.48,48.48L222.36,289A16.47,16.47,0,0,0,217.27,301a16.78,16.78,0,0,0,5.09,12.32l24.11,24.11a16.78,16.78,0,0,0,12.32,5.09,16.47,16.47,0,0,0,12.05-5.09L319.32,289l48.48,48.48a16.47,16.47,0,0,0,12.05,5.09,16.78,16.78,0,0,0,12.32-5.09l24.11-24.11A16.78,16.78,0,0,0,421.38,301ZM525,240.49q0,56-27.59,103.26a204.79,204.79,0,0,1-74.87,74.87Q375.31,446.2,319.32,446.2T216.07,418.61a204.79,204.79,0,0,1-74.87-74.87q-27.59-47.28-27.59-103.26T141.2,137.23a204.79,204.79,0,0,1,74.87-74.87q47.28-27.59,103.26-27.59T422.58,62.36a204.79,204.79,0,0,1,74.87,74.87Q525,184.5,525,240.49Z" transform="translate(-113.61 -34.77)"/>
    </g>
</svg>