<?xml version="1.0" encoding="utf-8"?>
<!-- Generator: Adobe Illustrator 16.0.4, SVG Export Plug-In . SVG Version: 6.00 Build 0)  -->
<!DOCTYPE svg PUBLIC "-//W3C//DTD SVG 1.1//EN" "http://www.w3.org/Graphics/SVG/1.1/DTD/svg11.dtd">
<svg version="1.1" id="Layer_1" xmlns="http://www.w3.org/2000/svg" xmlns:xlink="http://www.w3.org/1999/xlink" x="0px" y="0px"
	 viewBox="0 0 149.396 180.318" enable-background="new 0 0 149.396 180.318" width="21" height="21"
	 xml:space="preserve">
<path class="st0" fill="#454F56" d="M74.698,0c-25.183,0-45.67,20.486-45.67,45.67c0,10.709,3.815,21.136,10.742,29.357l1.973,2.341
	l-2.688,1.465C14.965,91.969,0,117.118,0,144.465v25.066c0,5.948,4.839,10.787,10.787,10.787H138.61
	c5.948,0,10.787-4.839,10.787-10.787v-25.066c0.001-27.347-14.964-52.495-39.056-65.631l-2.688-1.465l1.973-2.342
	c6.928-8.222,10.742-18.647,10.742-29.357C120.369,20.487,99.881,0,74.698,0z M127.823,158.745H21.574v-14.28
	c0-29.293,23.831-53.125,53.123-53.125c29.294,0,53.125,23.832,53.125,53.125V158.745z M74.698,69.765
	c-6.426,0-12.474-2.507-17.028-7.061c-4.557-4.555-7.065-10.602-7.065-17.026c0-13.287,10.81-24.097,24.096-24.097
	s24.097,10.81,24.097,24.097C98.795,58.96,87.985,69.765,74.698,69.765z"/>
</svg>

