<?xml version="1.0" encoding="utf-8"?>
<!-- Generator: Adobe Illustrator 16.0.4, SVG Export Plug-In . SVG Version: 6.00 Build 0)  -->
<!DOCTYPE svg PUBLIC "-//W3C//DTD SVG 1.1//EN" "http://www.w3.org/Graphics/SVG/1.1/DTD/svg11.dtd">
<svg version="1.1" id="Layer_1" xmlns:svg="http://www.w3.org/2000/svg"
	 xmlns="http://www.w3.org/2000/svg" xmlns:xlink="http://www.w3.org/1999/xlink" x="0px" y="0px" viewBox="0 0 99.211 99.213" enable-background="new 0 0 99.211 99.213" xml:space="preserve">
<title>Layer 1</title>
<g>
	<polygon class="line_st0" fill="none" stroke="#535353" stroke-width="10" stroke-linejoin="round" stroke-miterlimit="10" points="36.336,72.868 
		22.646,76.536 26.314,62.846"/>

	<rect class="line_st0" x="41.856" y="25.522"  stroke-width="10"  transform="matrix(0.707 0.7072 -0.7072 0.707 49.9505 -19.8604)" fill="none" stroke="#535353" stroke-linejoin="round" stroke-miterlimit="10" width="14.174" height="49.657"/>
</g>
<g>
	<path class="st0" d="M22.679,0H0v22.676h22.678L22.679,0L22.679,0z" shape-rendering="crispEdges"/>
</g>
<g>
	<path class="st0" d="M99.212,0H76.537v22.676h22.676V0L99.212,0z" shape-rendering="crispEdges"/>
</g>
<g>
	<path class="st0" d="M22.679,76.536H0v22.676h22.678L22.679,76.536L22.679,76.536z" shape-rendering="crispEdges"/>
</g>
<g>
	<path class="st0" d="M99.212,76.536H76.537v22.676h22.676V76.536L99.212,76.536z" shape-rendering="crispEdges"/>
</g>
<line class="line_st0" fill="none" stroke="#535353" stroke-miterlimit="10" stroke-width="10" x1="11.0" y1="21.0" x2="11.0" y2="78" shape-rendering="crispEdges"/>
<line class="line_st0" fill="none" stroke="#535353" stroke-miterlimit="10" stroke-width="10" x1="88" y1="21" x2="88" y2="78" shape-rendering="crispEdges"/>
<line class="line_st0" fill="none" stroke="#535353" stroke-miterlimit="10" stroke-width="10" x1="21" y1="88" x2="78" y2="88" shape-rendering="crispEdges"/>
<line class="line_st0" fill="none" stroke="#535353" stroke-miterlimit="10" stroke-width="10" x1="21" y1="11" x2="78" y2="11" shape-rendering="crispEdges"/>
</svg>
