<?xml version="1.0" encoding="utf-8"?>
<!-- Generator: Adobe Illustrator 16.0.4, SVG Export Plug-In . SVG Version: 6.00 Build 0)  -->
<!DOCTYPE svg PUBLIC "-//W3C//DTD SVG 1.1//EN" "http://www.w3.org/Graphics/SVG/1.1/DTD/svg11.dtd">
<svg version="1.1" id="Layer_1" xmlns="http://www.w3.org/2000/svg" xmlns:xlink="http://www.w3.org/1999/xlink" x="0px" y="0px"
	 viewBox="0 0 259.064 257.789" enable-background="new 0 0 259.064 257.789"
	 xml:space="preserve">
<g>
	<g>
		<path class="st0" fill="#9EB0C8" d="M61.174,59.899h28.461V33.325H47.885c-7.334,0-13.287,5.944-13.287,13.287v41.749h26.575V59.899z"/>
	</g>
	<g>
		<path class="st0" fill="#9EB0C8" d="M61.174,168.154H34.598v41.748c0,7.334,5.953,13.287,13.287,13.287h41.749v-26.574H61.174V168.154z"/>
	</g>
	<g>
		<path class="st0" fill="#9EB0C8" d="M197.888,88.36h26.575V46.612c0-7.343-5.952-13.287-13.287-13.287h-41.749v26.574h28.461V88.36z"/>
	</g>
	<g>
		<path class="st0" fill="#9EB0C8" d="M197.888,196.615h-28.461v26.574h41.749c7.335,0,13.287-5.953,13.287-13.287v-41.748h-26.575V196.615z"/>
	</g>
	<g>
		<path class="st0" fill="#9EB0C8" d="M142.784,13.287C142.784,5.944,136.831,0,129.496,0s-13.287,5.944-13.287,13.287v20.037v26.574v22.597
			c0,7.343,5.953,13.287,13.287,13.287s13.288-5.944,13.288-13.287V59.899h0.07V33.325h-0.07V13.287z"/>
	</g>
	<g>
		<path class="st0" fill="#9EB0C8" d="M142.784,175.303c0-7.334-5.953-13.287-13.288-13.287s-13.287,5.953-13.287,13.287v21.312v26.574V244.5
			c0,7.336,5.953,13.287,13.287,13.287s13.288-5.951,13.288-13.287v-21.311h0.07v-26.574h-0.07V175.303z"/>
	</g>
	<g>
		<path class="st0" fill="#9EB0C8" d="M245.777,114.934h-21.312h-26.575h-21.312c-7.334,0-13.287,5.943-13.287,13.287
			c0,7.335,5.953,13.287,13.287,13.287h21.312v0.07h26.575v-0.07h21.312c7.335,0,13.287-5.951,13.287-13.287
			C259.064,120.877,253.112,114.934,245.777,114.934z"/>
	</g>
	<g>
		<path class="st0" fill="#9EB0C8" d="M82.487,114.934H61.174H34.598H13.287C5.953,114.934,0,120.877,0,128.221
			c0,7.335,5.953,13.287,13.287,13.287h21.312v0.07h26.575v-0.07h21.312c7.334,0,13.287-5.951,13.287-13.287
			C95.774,120.877,89.83,114.934,82.487,114.934z"/>
	</g>
</g>
</svg>
