<?xml version="1.0" encoding="utf-8"?>
<!-- Generator: Adobe Illustrator 16.0.4, SVG Export Plug-In . SVG Version: 6.00 Build 0)  -->
<!DOCTYPE svg PUBLIC "-//W3C//DTD SVG 1.1//EN" "http://www.w3.org/Graphics/SVG/1.1/DTD/svg11.dtd">
<svg version="1.1" id="Layer_1" xmlns="http://www.w3.org/2000/svg" xmlns:xlink="http://www.w3.org/1999/xlink" x="0px" y="0px"
	 viewBox="0 0 214.438 214.445" enable-background="new 0 0 214.438 214.445"
	 xml:space="preserve">
<path class="st0" fill="#9EB0C8" d="M201.151,110.541h-77.322c-7.343,0-13.287,5.952-13.287,13.287v27.823
	c-12.809-1.949-22.996-6.865-30.375-14.724c-9.479-10.105-12.995-23.421-14.288-33.032H90.61c7.344,0,13.288-5.943,13.288-13.286
	V13.287C103.898,5.945,97.953,0,90.61,0H13.287C5.945,0,0,5.945,0,13.287v77.323c0,7.343,5.944,13.287,13.287,13.287h25.839
	c1.392,13.649,6.14,34.52,21.463,50.995c12.429,13.367,29.232,21.181,49.951,23.492v22.774c0,7.335,5.944,13.287,13.287,13.287
	h77.322c7.344,0,13.288-5.952,13.288-13.287v-77.323C214.439,116.493,208.493,110.541,201.151,110.541z M26.574,26.574h50.748
	v50.749H26.574V26.574z M187.863,187.865h-50.748v-50.748h50.748V187.865z"/>
</svg>
