<?xml version="1.0" encoding="utf-8"?>
<!-- Generator: Adobe Illustrator 21.1.0, SVG Export Plug-In . SVG Version: 6.00 Build 0)  -->
<svg version="1.1" id="Layer_1" xmlns="http://www.w3.org/2000/svg" xmlns:xlink="http://www.w3.org/1999/xlink" x="0px" y="0px"
	 viewBox="0 0 22.5 24.9" style="enable-background:new 0 0 22.5 24.9;" xml:space="preserve">
<style type="text/css">
	.st0{fill:#9AACC3;}
</style>
<path class="st0" d="M17.6,0H4.9C2.2,0,0,2.2,0,4.9l0,8.8c0,0,0,0.2,0,1c0,1.7,0.6,2.6,1.5,3.4c0.2,0.2,1.6,1.6,3,2.9
	c1.3,1.3,2.5,2.5,2.8,2.7c1.2,1.1,3,1.2,3.5,1.2c0.5,0,6.8,0,6.8,0c2.7,0,4.9-2.2,4.9-4.9V4.9C22.5,2.2,20.3,0,17.6,0z M11.2,17.5
	c0-0.6-0.2-1.2-0.4-1.7c-0.3-0.5-0.7-1-1.1-1.3c-0.6-0.4-1.3-0.6-2.1-0.6H2.3v-9c0-1.5,1.2-2.7,2.7-2.7h12.7c1.5,0,2.7,1.2,2.7,2.7
	V20c0,1.5-1.2,2.7-2.7,2.7h-6.4L11.2,17.5C11.2,17.5,11.2,17.5,11.2,17.5z M7.6,16.1c0.5,0,0.7,0.1,0.8,0.2c0.3,0.2,0.4,0.5,0.5,0.7
	c0,0.2,0.1,0.3,0.1,0.4c0,0,0,0.1,0,0.1v4.7l-6.3-6.1H7.6z"/>
</svg>
