<?xml version="1.0" encoding="utf-8"?>
<!-- Generator: Adobe Illustrator 21.1.0, SVG Export Plug-In . SVG Version: 6.00 Build 0)  -->
<svg version="1.1" id="Layer_1" xmlns="http://www.w3.org/2000/svg" xmlns:xlink="http://www.w3.org/1999/xlink" x="0px" y="0px"
	 viewBox="0 0 24.9 24.9" style="enable-background:new 0 0 24.9 24.9;" xml:space="preserve">
<style type="text/css">
	.st0{fill:#9AACC3;}
</style>
<path class="st0" d="M22.2,6.2c-1.5-0.1-2.8,1-3,2.4L9.7,9.9C9.5,9.5,9.3,9.1,9,8.7L12,5.7c0.2,0.1,0.5,0.1,0.8,0.1
	c1.2,0,2.2-1,2.2-2.2s-1-2.2-2.2-2.2s-2.2,1-2.2,2.2c0,0.3,0.1,0.5,0.1,0.8L7.8,7.4C7,6.9,6,6.5,5,6.5c-2.7,0-5,2.2-5,5s2.2,5,5,5
	c1.3,0,2.5-0.5,3.4-1.4l4.2,3c-0.2,0.4-0.3,0.9-0.3,1.4c0,2.1,1.7,3.8,3.8,3.8c2.1,0,3.8-1.7,3.8-3.8c0-2.1-1.7-3.8-3.8-3.8
	c-0.9,0-1.8,0.3-2.5,0.9l-4.2-3c0.3-0.6,0.4-1.2,0.5-1.9l9.5-1.4c0.4,0.9,1.3,1.5,2.4,1.6c1.6,0.1,2.9-1.1,3-2.7
	C25,7.6,23.8,6.2,22.2,6.2z"/>
</svg>
