<?xml version="1.0" encoding="utf-8"?>
<!-- Generator: Adobe Illustrator 16.0.0, SVG Export Plug-In . SVG Version: 6.00 Build 0)  -->
<!DOCTYPE svg PUBLIC "-//W3C//DTD SVG 1.1//EN" "http://www.w3.org/Graphics/SVG/1.1/DTD/svg11.dtd">
<svg version="1.1" id="Layer_1" xmlns="http://www.w3.org/2000/svg" xmlns:xlink="http://www.w3.org/1999/xlink" x="0px" y="0px"
	 viewBox="0 0 24.945 24.945" enable-background="new 0 0 24.945 24.945" xml:space="preserve">
<g>
	<g>
		<g>
			<path class="st0" fill="#A0B3CA" d="M2.785,8.146C1.249,8.146,0,6.896,0,5.361c0-1.536,1.249-2.785,2.785-2.785
				c1.537,0,2.787,1.249,2.787,2.785C5.571,6.896,4.321,8.146,2.785,8.146z"/>
		</g>
		<g>
			<path class="st0" fill="#A0B3CA" d="M23.753,6.552h-15.1c-0.658,0-1.191-0.534-1.191-1.191c0-0.658,0.534-1.192,1.191-1.192h15.1
				c0.657,0,1.191,0.534,1.191,1.192C24.945,6.019,24.411,6.552,23.753,6.552z"/>
		</g>
	</g>
	<g>
		<g>
			<path class="st0" fill="#A0B3CA" d="M2.785,15.258C1.249,15.258,0,14.009,0,12.473c0-1.536,1.249-2.786,2.785-2.786
				c1.537,0,2.787,1.25,2.787,2.786C5.571,14.009,4.321,15.258,2.785,15.258z M2.785,11.276c-0.659,0-1.196,0.537-1.196,1.197
				c0,0.66,0.537,1.197,1.196,1.197c0.66,0,1.198-0.537,1.198-1.197C3.982,11.812,3.445,11.276,2.785,11.276z"/>
		</g>
		<g>
			<path class="st0" fill="#A0B3CA" d="M23.753,13.665h-15.1c-0.658,0-1.191-0.534-1.191-1.192s0.534-1.191,1.191-1.191h15.1
				c0.657,0,1.191,0.534,1.191,1.191S24.411,13.665,23.753,13.665z"/>
		</g>
	</g>
	<g>
		<g>
			<path class="st0" fill="#A0B3CA" d="M2.785,22.37C1.249,22.37,0,21.122,0,19.585c0-1.538,1.249-2.787,2.785-2.787
				c1.537,0,2.787,1.249,2.787,2.787C5.571,21.122,4.321,22.37,2.785,22.37z M2.785,18.387c-0.659,0-1.196,0.537-1.196,1.198
				c0,0.659,0.537,1.196,1.196,1.196c0.66,0,1.198-0.537,1.198-1.196C3.982,18.924,3.445,18.387,2.785,18.387z"/>
		</g>
		<g>
			<path class="st0" fill="#A0B3CA" d="M23.753,20.777h-15.1c-0.658,0-1.191-0.534-1.191-1.191c0-0.658,0.534-1.191,1.191-1.191h15.1
				c0.657,0,1.191,0.533,1.191,1.191C24.945,20.243,24.411,20.777,23.753,20.777z"/>
		</g>
	</g>
</g>
</svg>
