<?xml version="1.0" encoding="utf-8"?>
<!-- Generator: Adobe Illustrator 21.1.0, SVG Export Plug-In . SVG Version: 6.00 Build 0)  -->
<svg version="1.1" id="Layer_1" xmlns="http://www.w3.org/2000/svg" xmlns:xlink="http://www.w3.org/1999/xlink" x="0px" y="0px"
	 viewBox="0 0 24.9 24.9" style="enable-background:new 0 0 24.9 24.9;" xml:space="preserve">
<style type="text/css">
	.st0{fill:#9AACC3;}
</style>
<path class="st0" d="M15.6,0c-5.1,0-9.2,4.1-9.2,9.2c0,1.9,0.6,3.6,1.5,5l-7.8,8l2.7,2.7l7.8-7.9c1.4,0.9,3.2,1.5,5,1.5
	c5.1,0,9.2-4.1,9.2-9.2C24.9,4.1,20.7,0,15.6,0z M15.6,16.1c-3.8,0-6.9-3.1-6.9-6.9s3.1-6.9,6.9-6.9s6.9,3.1,6.9,6.9
	S19.4,16.1,15.6,16.1z"/>
</svg>
