<?xml version="1.0" encoding="utf-8"?>
<!-- Generator: Adobe Illustrator 16.0.4, SVG Export Plug-In . SVG Version: 6.00 Build 0)  -->
<!DOCTYPE svg PUBLIC "-//W3C//DTD SVG 1.1//EN" "http://www.w3.org/Graphics/SVG/1.1/DTD/svg11.dtd">
<svg version="1.1" id="Layer_1" xmlns="http://www.w3.org/2000/svg" xmlns:xlink="http://www.w3.org/1999/xlink" x="0px" y="0px"
	 viewBox="0 0 255.111 255.107" enable-background="new 0 0 255.111 255.107"
	 xml:space="preserve">
<path class="st0" fill="#9EB0C8" d="M255.103,212.087V43.012c-0.04-0.75,0.072-10.357-5.194-21.027c-4.979-10.717-17.623-22.29-37.805-21.979
	H43.027c-0.763,0.052-10.36-0.059-21.042,5.205C11.27,10.176-0.305,22.83,0.006,43.015v62.808
	c7.96-9.441,19.861-15.459,33.182-15.459c9.165,0,17.654,2.86,24.657,7.71l25.659-25.659c-0.742-2.027-1.211-4.183-1.211-6.465
	c0-10.415,8.445-18.856,18.862-18.856c10.415,0,18.859,8.443,18.859,18.856c0,10.417-8.445,18.862-18.859,18.862
	c-2.423,0-4.715-0.498-6.837-1.328l-25.52,25.515c2.312,3.322,4.159,6.982,5.478,10.896l83.514-11.737
	c1.995-11.89,12.312-20.962,24.768-20.962c13.893,0,25.148,11.26,25.148,25.147c0,13.887-11.257,25.148-25.148,25.148
	c-9.885,0-18.414-5.717-22.523-14.019l-83.53,11.738c-0.208,6.256-1.735,12.152-4.317,17.466l36.792,26.729
	c5.865-5.16,13.535-8.312,21.958-8.312c18.383,0,33.281,14.895,33.281,33.278c0,18.385-14.901,33.281-33.281,33.281
	c-18.381,0-33.281-14.898-33.281-33.281c0-4.359,0.86-8.52,2.391-12.335l-36.984-26.87c-7.785,7.409-18.287,11.979-29.876,11.979
	c-13.322,0-25.222-6.013-33.182-15.46v50.4c0.047,0.744-0.061,10.357,5.208,21.034c4.896,10.572,17.29,21.987,37.021,21.987
	c0.262,0,0.525,0,0.792-0.006h169.078c0.74-0.045,10.353,0.059,21.02-5.199C243.848,244.921,255.421,232.279,255.103,212.087"/>
</svg>
