<?xml version="1.0" encoding="utf-8"?>
<!-- Generator: Adobe Illustrator 21.1.0, SVG Export Plug-In . SVG Version: 6.00 Build 0)  -->
<svg version="1.1" id="Layer_1" xmlns="http://www.w3.org/2000/svg" xmlns:xlink="http://www.w3.org/1999/xlink" x="0px" y="0px"
	 viewBox="0 0 22.5 24.9" style="enable-background:new 0 0 22.5 24.9;" xml:space="preserve">
<style type="text/css">
	.st0{fill:#9AACC3;}
</style>
<g>
	<g>
		<path class="st0" d="M7.2,5.5C7.2,7,6,8.3,4.4,8.3c-1.5,0-2.8-1.2-2.8-2.8c0-1.5,1.2-2.8,2.8-2.8C5.9,2.7,7.2,4,7.2,5.5 M21.2,6.7
			H9.8V4.3h11.4V6.7z"/>
	</g>
	<path class="st0" d="M4.4,9.2c-1.7,0-3.1,1.4-3.1,3.1s1.4,3.1,3.1,3.1s3.1-1.4,3.1-3.1C7.4,10.6,6.1,9.2,4.4,9.2z M4.4,13.6
		C3.6,13.6,3,13,3,12.2c0-0.8,0.6-1.4,1.4-1.4s1.4,0.6,1.4,1.4C5.8,13,5.1,13.6,4.4,13.6z"/>
	<rect x="9.9" y="11.1" class="st0" width="11.4" height="2.4"/>
	<path class="st0" d="M4.4,16c-1.7,0-3.1,1.4-3.1,3.1s1.4,3.1,3.1,3.1s3.1-1.4,3.1-3.1C7.4,17.3,6.1,16,4.4,16z M4.4,20.4
		C3.6,20.4,3,19.8,3,19s0.6-1.4,1.4-1.4s1.4,0.6,1.4,1.4C5.8,19.8,5.1,20.4,4.4,20.4z"/>
	<rect x="9.9" y="17.8" class="st0" width="11.4" height="2.4"/>
</g>
</svg>
