<?xml version="1.0" encoding="utf-8"?>
<!-- Generator: Adobe Illustrator 16.0.4, SVG Export Plug-In . SVG Version: 6.00 Build 0)  -->
<!DOCTYPE svg PUBLIC "-//W3C//DTD SVG 1.1//EN" "http://www.w3.org/Graphics/SVG/1.1/DTD/svg11.dtd">
<svg version="1.1" id="Layer_1" xmlns="http://www.w3.org/2000/svg" xmlns:xlink="http://www.w3.org/1999/xlink" x="0px" y="0px"
	 viewBox="0 0 220.719 243.6" enable-background="new 0 0 220.719 243.6" xml:space="preserve">
<g>
	<polygon fill="none" points="49.3,89.689 49.3,74.187 182.49,74.187 182.49,89.689 196.114,89.689 186.006,47.613 180.956,26.575 
		50.832,26.575 45.783,47.613 35.676,89.689 	"/>
</g>
<g>
	<rect x="49.3" y="138.682" fill="none" width="133.191" height="78.342"/>
</g>
<g>
	<rect x="49.3" y="74.187" fill="none" width="133.191" height="15.501"/>
</g>
<g>
	<path class="st0" fill="#9EB0C8" d="M176.953,169.412H43.762v-30.729H17.188v91.63c0,7.334,5.944,13.286,13.287,13.286H190.24
		c7.344,0,13.286-5.952,13.286-13.286v-91.63h-26.573V169.412L176.953,169.412z M43.762,217.024v-21.038h133.19v21.038H43.762
		L43.762,217.024z"/>
	<path class="st0" fill="#9EB0C8" d="M220.349,99.867l-21.524-89.689C197.388,4.217,192.039,0,185.9,0H34.815C28.677,0,23.336,4.217,21.9,10.177
		L0.367,99.866c-0.948,3.959-0.035,8.132,2.488,11.33c2.18,2.764,5.377,4.456,8.84,4.881h5.492h26.574h133.19h26.573h5.492
		c3.464-0.426,6.662-2.109,8.841-4.881C220.384,107.999,221.306,103.835,220.349,99.867z M176.953,89.689H43.762H30.147
		l10.099-42.076l5.049-21.038h130.125l5.05,21.038l10.098,42.076H176.953z"/>
</g>
<g>
	<rect x="49.3" y="116.078" fill="#FFFFFF" width="133.191" height="0.186"/>
</g>
<g>
	<path fill="#FFFFFF" d="M22.724,116.262v-0.186h-5.492c0.531,0.062,1.055,0.186,1.595,0.186H22.724z"/>
</g>
<g>
	<path fill="#FFFFFF" d="M209.064,116.262h3.897c0.54,0,1.062-0.114,1.595-0.186h-5.492V116.262z"/>
</g>
<g>
	<rect x="182.49" y="116.078" fill="#FFFFFF" width="26.573" height="0.186"/>
</g>
<g>
	<rect x="22.724" y="116.078" fill="#FFFFFF" width="26.575" height="0.186"/>
</g>
</svg>
