<?xml version="1.0" encoding="utf-8"?>
<!-- Generator: Adobe Illustrator 16.0.4, SVG Export Plug-In . SVG Version: 6.00 Build 0)  -->
<!DOCTYPE svg PUBLIC "-//W3C//DTD SVG 1.1//EN" "http://www.w3.org/Graphics/SVG/1.1/DTD/svg11.dtd">
<svg version="1.1" id="Layer_1" xmlns="http://www.w3.org/2000/svg" xmlns:xlink="http://www.w3.org/1999/xlink" x="0px" y="0px"
	 viewBox="0 0 178.172 224.262" enable-background="new 0 0 178.172 224.262"
	 xml:space="preserve">
<g>
	<path class="st0" fill="#9EB0C8" d="M114.039,118.079c7.061-8.38,11.33-19.178,11.33-30.968c0-26.558-21.605-48.171-48.171-48.171
		c-26.565,0-48.17,21.605-48.17,48.171c0,11.79,4.27,22.588,11.329,30.968C16.334,131.18,0,156.665,0,185.906v25.067
		c0,7.334,5.953,13.287,13.288,13.287h127.822c7.334,0,13.287-5.953,13.287-13.287v-25.067
		C154.396,156.665,138.062,131.18,114.039,118.079z M55.602,87.112c0-11.905,9.689-21.597,21.596-21.597
		c11.905,0,21.595,9.691,21.595,21.597c0,11.904-9.689,21.596-21.595,21.596S55.602,99.016,55.602,87.112z M127.822,197.688H26.575
		v-11.78c0-27.912,22.703-50.625,50.625-50.625c27.919,0,50.623,22.703,50.623,50.625V197.688L127.822,197.688z"/>
	<path class="st0" fill="#9EB0C8" d="M173.637,25.707H157c-2.506,0-4.535-2.029-4.535-4.536V4.536c0-2.507-2.027-4.536-4.535-4.536h-7.6
		c-2.508,0-4.535,2.029-4.535,4.536v16.635c0,2.507-2.029,4.536-4.535,4.536h-16.484c-2.508,0-4.537,2.028-4.537,4.535v7.608
		c0,2.507,2.029,4.535,4.537,4.535h16.484c2.506,0,4.535,2.028,4.535,4.535v16.627c0,2.507,2.027,4.535,4.535,4.535h7.6
		c2.508,0,4.535-2.028,4.535-4.535V46.922c0-2.507,2.029-4.535,4.535-4.535h16.637c2.506,0,4.535-2.027,4.535-4.535v-7.608
		C178.172,27.736,176.143,25.707,173.637,25.707z"/>
</g>
</svg>
