<?xml version="1.0" encoding="utf-8"?>
<!-- Generator: Adobe Illustrator 16.0.4, SVG Export Plug-In . SVG Version: 6.00 Build 0)  -->
<!DOCTYPE svg PUBLIC "-//W3C//DTD SVG 1.1//EN" "http://www.w3.org/Graphics/SVG/1.1/DTD/svg11.dtd">
<svg version="1.1" id="Layer_1" xmlns="http://www.w3.org/2000/svg" xmlns:xlink="http://www.w3.org/1999/xlink" x="0px" y="0px"
	 viewBox="0 0 241.934 259.4" enable-background="new 0 0 241.934 259.4" xml:space="preserve">
<g>
	<polygon fill="none" points="194.321,160.554 194.321,197.643 215.36,197.643 215.36,95.775 26.575,95.775 26.575,197.643 
		47.613,197.643 47.613,160.554 	"/>
</g>
<g>
	<path class="st0" fill="#9EB0C8" d="M74.187,26.574h93.56v32.111h26.573V13.287C194.32,5.945,188.368,0,181.033,0H60.9
		c-7.334,0-13.287,5.944-13.287,13.287v45.398h26.574V26.574z"/>
	<rect class="st0" x="177.712" y="116.263" fill="#9EB0C8" width="18.823" height="18.824"/>
	<path class="st0" fill="#9EB0C8" d="M228.647,69.199H13.288C5.954,69.199,0,75.144,0,82.487V210.93c0,7.335,5.953,13.287,13.288,13.287h34.324
		v35.185h146.708v-35.184h34.326c7.334,0,13.287-5.952,13.287-13.287V82.488C241.934,75.153,235.991,69.199,228.647,69.199z
		 M167.756,232.827H74.187v-8.609v-26.574V187.12h93.56v10.523v26.574v8.609H167.756z M215.36,197.643h-21.039v-37.099H47.613
		v37.099H26.575V95.775H215.36V197.643L215.36,197.643z"/>
</g>
</svg>
