<?xml version="1.0" encoding="utf-8"?>
<!-- Generator: Adobe Illustrator 16.0.4, SVG Export Plug-In . SVG Version: 6.00 Build 0)  -->
<!DOCTYPE svg PUBLIC "-//W3C//DTD SVG 1.1//EN" "http://www.w3.org/Graphics/SVG/1.1/DTD/svg11.dtd">
<svg version="1.1" id="Layer_1" xmlns="http://www.w3.org/2000/svg" xmlns:xlink="http://www.w3.org/1999/xlink" x="0px" y="0px"
	 viewBox="0 0 145.424 253.928" enable-background="new 0 0 145.424 253.928"
	 xml:space="preserve">
<g>
	<path fill="none" d="M26.575,163.505c0,25.439,20.701,46.133,46.142,46.133s46.133-20.692,46.133-46.133v-36.54H26.575V163.505z"/>
</g>
<g>
	<path fill="none" d="M72.717,44.291c-25.44,0-46.142,20.692-46.142,46.134v36.54h92.274v-36.54
		C118.85,64.985,98.157,44.291,72.717,44.291z"/>
</g>
<g>
	<path class="st0" fill="#9EB0C8" d="M85.995,158.641V95.28c0-7.343-5.953-13.287-13.287-13.287S59.421,87.937,59.421,95.28v63.362
		c0,7.344,5.953,13.287,13.287,13.287S85.995,165.985,85.995,158.641z"/>
	<path class="st0" fill="#9EB0C8" d="M83.675,0.808C38.737-5.801,0.001,29.012,0.001,72.708v31.251c0,2.914,2.365,5.288,5.289,5.288h13.448
		c4.332,0,7.838-3.508,7.838-7.839v-28.7c0-28.594,26.149-51.199,55.797-45.149c21.703,4.429,36.479,24.803,36.479,46.948v26.894
		c0,4.332,3.518,7.848,7.85,7.848h12.17c3.623,0,6.556-2.932,6.556-6.555V75.048C145.425,38.65,119.683,6.096,83.675,0.808z"/>
	<path class="st0" fill="#9EB0C8" d="M139.127,144.68h-12.554c-4.27,0-7.724,3.464-7.724,7.725v26.761c0,24.076-17.557,45.619-41.526,47.958
		c-27.504,2.685-50.748-18.946-50.748-45.911v-30.048c0-3.588-2.906-6.491-6.494-6.491H7.282c-4.022,0-7.282,3.26-7.282,7.28v26.689
		c0,38.69,29.135,72.529,67.737,75.116c42.334,2.835,77.687-30.801,77.687-72.549v-30.241
		C145.425,147.497,142.599,144.68,139.127,144.68z"/>
</g>
</svg>
