<?xml version="1.0" encoding="utf-8"?>
<!-- Generator: Adobe Illustrator 16.0.4, SVG Export Plug-In . SVG Version: 6.00 Build 0)  -->
<!DOCTYPE svg PUBLIC "-//W3C//DTD SVG 1.1//EN" "http://www.w3.org/Graphics/SVG/1.1/DTD/svg11.dtd">
<svg version="1.1" id="Layer_1" xmlns="http://www.w3.org/2000/svg" xmlns:xlink="http://www.w3.org/1999/xlink" x="0px" y="0px"
	 viewBox="0 0 201.008 192.16" enable-background="new 0 0 201.008 192.16"
	 xml:space="preserve">
<g>
	<path class="st0" fill="#9EB0C8" d="M51.787,14.785c-20.027,0-36.322,16.293-36.322,36.321c0,20.027,16.294,36.322,36.322,36.322
		c20.026,0,36.32-16.295,36.32-36.322C88.102,31.078,71.815,14.785,51.787,14.785z M51.787,64.94
		c-7.63,0-13.836-6.205-13.836-13.835s6.206-13.836,13.836-13.836c7.631,0,13.836,6.205,13.836,13.836
		C65.616,58.735,59.41,64.94,51.787,64.94z"/>
	<path class="st0" fill="#9EB0C8" d="M149.223,87.428c20.026,0,36.321-16.295,36.321-36.322c0-20.027-16.295-36.321-36.321-36.321
		c-20.027,0-36.322,16.293-36.322,36.321C112.9,71.132,129.189,87.428,149.223,87.428z M149.223,37.269
		c7.631,0,13.837,6.206,13.837,13.836c0,7.63-6.206,13.835-13.837,13.835s-13.836-6.205-13.836-13.835
		C135.387,43.475,141.594,37.269,149.223,37.269z"/>
	<path class="st0" fill="#9EB0C8" d="M51.787,104.733c-20.027,0-36.322,16.294-36.322,36.32c0,20.027,16.294,36.322,36.322,36.322
		c20.026,0,36.32-16.295,36.32-36.322C88.108,121.027,71.815,104.733,51.787,104.733z M51.787,154.882
		c-7.63,0-13.836-6.205-13.836-13.837c0-7.631,6.206-13.836,13.836-13.836c7.631,0,13.836,6.205,13.836,13.836
		C65.624,148.677,59.41,154.882,51.787,154.882z"/>
	<path class="st0" fill="#9EB0C8" d="M149.223,104.733c-20.027,0-36.322,16.294-36.322,36.32c0,20.027,16.295,36.322,36.322,36.322
		c20.026,0,36.321-16.295,36.321-36.322C185.544,121.027,169.249,104.733,149.223,104.733z M149.223,154.882
		c-7.631,0-13.838-6.205-13.838-13.837c0-7.631,6.207-13.836,13.838-13.836s13.837,6.205,13.837,13.836
		C163.06,148.677,156.846,154.882,149.223,154.882z"/>
</g>
</svg>
