<?xml version="1.0" encoding="utf-8"?>
<!-- Generator: Adobe Illustrator 21.1.0, SVG Export Plug-In . SVG Version: 6.00 Build 0)  -->
<svg version="1.1" id="Layer_1" xmlns="http://www.w3.org/2000/svg" xmlns:xlink="http://www.w3.org/1999/xlink" x="0px" y="0px"
	 viewBox="0 0 22.5 24.9" style="enable-background:new 0 0 22.5 24.9;" xml:space="preserve">
<style type="text/css">
	.st0{fill:#9AACC3;}
</style>
<g>
	<g>
		<path class="st0" d="M10.5,8.3c0,1.5-1.2,2.8-2.8,2.8c-1.5,0-2.8-1.2-2.8-2.8c0-1.5,1.2-2.8,2.8-2.8C9.2,5.5,10.5,6.8,10.5,8.3
			 M22.5,9.5h-9.4V7.1h9.4V9.5z"/>
	</g>
	<path class="st0" d="M7.7,12c-1.7,0-3.1,1.4-3.1,3.1c0,1.7,1.4,3.1,3.1,3.1s3.1-1.4,3.1-3.1C10.7,13.4,9.4,12,7.7,12z M7.7,16.4
		c-0.8,0-1.4-0.6-1.4-1.4c0-0.8,0.6-1.4,1.4-1.4c0.8,0,1.4,0.6,1.4,1.4C9.1,15.8,8.4,16.4,7.7,16.4z"/>
	<rect x="13.2" y="13.9" class="st0" width="9.4" height="2.4"/>
	<path class="st0" d="M7.7,18.8c-1.7,0-3.1,1.4-3.1,3.1c0,1.7,1.4,3.1,3.1,3.1s3.1-1.4,3.1-3.1C10.7,20.1,9.4,18.8,7.7,18.8z
		 M7.7,23.2c-0.8,0-1.4-0.6-1.4-1.4c0-0.8,0.6-1.4,1.4-1.4c0.8,0,1.4,0.6,1.4,1.4C9.1,22.6,8.4,23.2,7.7,23.2z"/>
	<rect x="13.2" y="20.6" class="st0" width="9.4" height="2.4"/>
</g>
</svg>
