<?xml version="1.0" encoding="utf-8"?>
<!-- Generator: Adobe Illustrator 16.0.4, SVG Export Plug-In . SVG Version: 6.00 Build 0)  -->
<!DOCTYPE svg PUBLIC "-//W3C//DTD SVG 1.1//EN" "http://www.w3.org/Graphics/SVG/1.1/DTD/svg11.dtd">
<svg version="1.1" id="Capa_1" xmlns="http://www.w3.org/2000/svg" xmlns:xlink="http://www.w3.org/1999/xlink" x="0px" y="0px"
	 viewBox="0 0 295.461 295.457" enable-background="new 0 0 295.461 295.457"
	 xml:space="preserve">
<g>
	<path class="st0" fill="#9EB0C8" d="M295.459,135.347c0.158-11.57-8.05-21.365-19.505-23.288l-16.323-2.769
		c-1.588-4.619-3.453-9.126-5.57-13.467l9.613-13.449c6.721-9.438,5.643-22.183-2.54-30.284l-17.646-17.646
		c-4.455-4.456-10.357-6.91-16.62-6.91c-4.931,0-9.644,1.517-13.604,4.37L199.76,41.52c-4.654-2.278-9.402-4.234-14.187-5.843
		l-2.706-16.043C180.96,8.258,171.201,0,159.662,0h-24.93c-11.538,0-21.298,8.257-23.206,19.617l-2.828,16.578
		c-4.567,1.593-9.059,3.485-13.421,5.654l-13.294-9.572c-3.986-2.87-8.72-4.386-13.69-4.386c-6.341,0-12.257,2.467-16.611,6.901
		L33.969,52.445c-8.157,8.157-9.225,20.893-2.541,30.283l9.748,13.694c-2.098,4.349-3.938,8.874-5.498,13.521l-16.045,2.706
		C8.257,114.559,0,124.319,0,135.857v24.93c0,11.535,8.256,21.297,19.617,23.205l16.578,2.828c1.593,4.568,3.485,9.061,5.655,13.423
		L32.318,213.5c-6.718,9.438-5.641,22.184,2.541,30.281l17.646,17.646c4.456,4.456,10.357,6.91,16.618,6.91
		c4.929,0,9.642-1.518,13.605-4.37l13.693-9.747c4.102,1.979,8.404,3.746,12.856,5.281l2.72,16.32
		c1.909,11.375,11.67,19.633,23.208,19.633h24.988c11.539,0,21.299-8.258,23.205-19.621l2.771-16.324
		c4.618-1.588,9.125-3.453,13.468-5.572l13.426,9.6c3.986,2.869,8.721,4.386,13.689,4.386c6.262,0,12.163-2.452,16.617-6.907
		l17.646-17.646c8.154-8.154,9.225-20.889,2.541-30.285l-9.623-13.508c2.183-4.475,4.053-8.979,5.588-13.458l16.306-2.718
		c11.376-1.907,19.634-11.668,19.634-23.207L295.459,135.347z M235.21,170.24c-2.133,8.248-5.38,16.068-9.669,23.275
		c-2.785,4.738-2.541,10.705,0.637,15.215l12.453,17.547l-12.355,12.355L208.82,226.21c-2.362-1.706-5.168-2.606-8.108-2.606
		c-2.51,0-4.979,0.672-7.175,1.963c-7.174,4.271-14.994,7.517-23.198,9.638c-5.435,1.358-9.491,5.797-10.321,11.216l-3.578,21.172
		H139.02l-3.53-21.177c-0.925-5.446-4.966-9.845-10.276-11.2c-7.862-2.031-15.531-5.175-22.802-9.346
		c-2.125-1.215-4.546-1.855-7.003-1.855c-2.938,0-5.823,0.928-8.132,2.614l-17.624,12.537l-12.351-12.351l12.402-17.395
		c3.175-4.506,3.42-10.494,0.595-15.307c-4.393-7.32-7.675-15.114-9.78-23.252c-1.445-5.266-5.825-9.264-11.175-10.189
		l-21.357-3.636V139.61l21-3.525c5.505-0.935,9.929-5.01,11.268-10.372c2.093-8.316,5.283-16.154,9.482-23.297
		c2.789-4.751,2.506-10.714-0.701-15.162l-12.565-17.66l12.351-12.351l17.392,12.402c2.383,1.679,5.188,2.567,8.109,2.567
		c2.512,0,4.983-0.671,7.198-1.971c7.322-4.394,15.116-7.677,23.252-9.78c5.266-1.445,9.264-5.825,10.189-11.175l3.635-21.356
		h17.428l3.524,21c0.935,5.504,5.011,9.928,10.374,11.268c8.387,2.111,16.4,5.399,23.828,9.778c2.165,1.27,4.627,1.941,7.122,1.941
		c2.899,0,5.692-0.887,8.122-2.599l17.357-12.478l12.34,12.341L226.27,86.636c-3.22,4.464-3.479,10.451-0.645,15.283
		c4.27,7.169,7.516,14.989,9.639,23.2c1.36,5.43,5.797,9.486,11.217,10.319l21.172,3.579v15.27l-0.064,0.001v2.147l-21.179,3.529
		C240.966,160.889,236.568,164.928,235.21,170.24z"/>
	<path class="st0" fill="#9EB0C8" d="M147.759,80.532c-37.037,0-67.168,30.132-67.168,67.168s30.131,67.168,67.168,67.168
		c37.037,0,67.169-30.132,67.169-67.168S184.795,80.532,147.759,80.532z M147.759,186.88c-21.604,0-39.181-17.575-39.181-39.18
		c0-21.604,17.576-39.18,39.181-39.18c21.604,0,39.181,17.577,39.181,39.181C186.939,169.305,169.363,186.88,147.759,186.88z"/>
</g>
</svg>
