<?xml version="1.0" encoding="utf-8"?>
<!-- Generator: Adobe Illustrator 21.1.0, SVG Export Plug-In . SVG Version: 6.00 Build 0)  -->
<svg version="1.1" id="Layer_1" xmlns="http://www.w3.org/2000/svg" xmlns:xlink="http://www.w3.org/1999/xlink" x="0px" y="0px"
	 viewBox="0 0 24.9 24.9" style="enable-background:new 0 0 24.9 24.9;" xml:space="preserve">
<style type="text/css">
	.st0{fill:#9AACC3;}
</style>
<g>
	<path class="st0" d="M7.9,10.8L7.9,10.8c0-1.7,1.6-3.1,3.7-3.1c2,0,3.7,1.4,3.7,3.1l0,0h2.9l0,0c0-3.1-2.9-5.6-6.6-5.6
		S5,7.7,5,10.8l0,0H7.9z"/>
	<path class="st0" d="M13,11.4h-2.9l0,0c0,1.7-1.6,3.1-3.7,3.1c-2,0-3.7-1.4-3.7-3.1l0,0H0l0,0C0,14.5,2.9,17,6.6,17
		S13,14.4,13,11.4L13,11.4z"/>
	<path class="st0" d="M18.3,14.1c-3.6,0-6.6,2.5-6.6,5.6l0,0h2.9l0,0c0-1.7,1.6-3.1,3.7-3.1c2,0,3.7,1.4,3.7,3.1l0,0h2.9l0,0
		C24.8,16.6,21.9,14.1,18.3,14.1z"/>
</g>
</svg>
