<?xml version="1.0" encoding="utf-8"?>
<!-- Generator: Adobe Illustrator 21.1.0, SVG Export Plug-In . SVG Version: 6.00 Build 0)  -->
<svg version="1.1" id="Layer_1" xmlns="http://www.w3.org/2000/svg" xmlns:xlink="http://www.w3.org/1999/xlink" x="0px" y="0px"
	 viewBox="0 0 24.9 24.9" style="enable-background:new 0 0 24.9 24.9;" xml:space="preserve">
<style type="text/css">
	.st0{fill:#9AACC3;}
</style>
<path class="st0" d="M24.9,15.7h-6.4V7.3C21,7.6,23.3,9,24.9,11V7.1c-1.8-1.4-4.1-2.4-6.4-2.6V0.1h-2.8v4.4
	C9.8,5.1,5.1,9.8,4.4,15.7H0v2.8h4.4c0.3,2.4,1.2,4.6,2.6,6.4h3.9c-2-1.6-3.3-3.9-3.7-6.4h8.4v6.4h2.8v-6.4h6.4V15.7z M7.2,15.7
	c0.6-4.4,4.1-7.8,8.4-8.4v8.4H7.2z"/>
</svg>
