<?xml version="1.0" encoding="utf-8"?>
<!-- Generator: Adobe Illustrator 19.2.1, SVG Export Plug-In . SVG Version: 6.00 Build 0)  -->
<svg version="1.1" id="Layer_1" xmlns="http://www.w3.org/2000/svg" xmlns:xlink="http://www.w3.org/1999/xlink" x="0px" y="0px"
	 viewBox="0 0 32 32" style="enable-background:new 0 0 32 32;" xml:space="preserve">
<style type="text/css">
	.st0{fill:#307DE7;}
	.st1{fill:none;}
	.st2{fill:#FFFFFF;}
</style>
<path class="st0" d="M25.979,16.375H17.25c-0.829,0-1.5,0.672-1.5,1.5v3.141c-1.446-0.22-2.596-0.775-3.429-1.662
	c-1.07-1.141-1.467-2.644-1.613-3.729H13.5c0.829,0,1.5-0.671,1.5-1.5V5.396c0-0.829-0.671-1.5-1.5-1.5H4.771
	c-0.829,0-1.5,0.671-1.5,1.5v8.729c0,0.829,0.671,1.5,1.5,1.5h2.917c0.157,1.541,0.693,3.897,2.423,5.757
	c1.403,1.509,3.3,2.391,5.639,2.652v2.571c0,0.828,0.671,1.5,1.5,1.5h8.729c0.829,0,1.5-0.672,1.5-1.5v-8.729
	C27.479,17.047,26.808,16.375,25.979,16.375z M6.271,6.896H12v5.729H6.271V6.896z M24.479,25.104H18.75v-5.729h5.729V25.104z"/>
</svg>
