<?xml version="1.0" encoding="utf-8"?>
<!-- Generator: Adobe Illustrator 19.2.1, SVG Export Plug-In . SVG Version: 6.00 Build 0)  -->
<svg version="1.1" id="Layer_1" xmlns="http://www.w3.org/2000/svg" xmlns:xlink="http://www.w3.org/1999/xlink" x="0px" y="0px"
	 viewBox="0 0 32 32" style="enable-background:new 0 0 32 32;" xml:space="preserve">
<style type="text/css">
	.st0{fill:#307DE7;}
	.st1{fill:none;}
	.st2{fill:#FFFFFF;}
</style>
<g>
	<g>
		<path class="st0" d="M8.283,8.783h3.213v-3H6.783c-0.828,0-1.5,0.671-1.5,1.5v4.713h3V8.783z"/>
	</g>
	<g>
		<path class="st0" d="M8.283,21.004h-3v4.713c0,0.828,0.672,1.5,1.5,1.5h4.713v-3H8.283V21.004z"/>
	</g>
	<g>
		<path class="st0" d="M23.717,11.996h3V7.283c0-0.829-0.672-1.5-1.5-1.5h-4.713v3h3.213V11.996z"/>
	</g>
	<g>
		<path class="st0" d="M23.717,24.217h-3.213v3h4.713c0.828,0,1.5-0.672,1.5-1.5v-4.713h-3V24.217z"/>
	</g>
	<g>
		<path class="st0" d="M17.496,3.521c0-0.829-0.672-1.5-1.5-1.5s-1.5,0.671-1.5,1.5v2.262v3v2.551c0,0.829,0.672,1.5,1.5,1.5
			s1.5-0.671,1.5-1.5V8.783h0.008v-3h-0.008V3.521z"/>
	</g>
	<g>
		<path class="st0" d="M17.496,21.811c0-0.828-0.672-1.5-1.5-1.5s-1.5,0.672-1.5,1.5v2.406v3v2.406c0,0.828,0.672,1.5,1.5,1.5
			s1.5-0.672,1.5-1.5v-2.406h0.008v-3h-0.008V21.811z"/>
	</g>
	<g>
		<path class="st0" d="M29.123,14.996h-2.406h-3h-2.406c-0.828,0-1.5,0.671-1.5,1.5c0,0.828,0.672,1.5,1.5,1.5h2.406v0.008h3v-0.008
			h2.406c0.828,0,1.5-0.672,1.5-1.5C30.623,15.667,29.951,14.996,29.123,14.996z"/>
	</g>
	<g>
		<path class="st0" d="M10.689,14.996H8.283h-3H2.877c-0.828,0-1.5,0.671-1.5,1.5c0,0.828,0.672,1.5,1.5,1.5h2.406v0.008h3v-0.008
			h2.406c0.828,0,1.5-0.672,1.5-1.5C12.189,15.667,11.518,14.996,10.689,14.996z"/>
	</g>
</g>
</svg>
