<?xml version="1.0" encoding="utf-8"?>
<!-- Generator: Adobe Illustrator 19.2.1, SVG Export Plug-In . SVG Version: 6.00 Build 0)  -->
<svg version="1.1" id="Layer_1" xmlns="http://www.w3.org/2000/svg" xmlns:xlink="http://www.w3.org/1999/xlink" x="0px" y="0px"
	 viewBox="0 0 32 32" style="enable-background:new 0 0 32 32;" xml:space="preserve">
<style type="text/css">
	.st0{fill:#307DE7;}
	.st1{fill:none;}
	.st2{fill:#FFFFFF;}
</style>
<g>
	<polygon class="st1" points="8.482,13.125 8.482,11.375 23.518,11.375 23.518,13.125 25.056,13.125 23.915,8.375 23.345,6 8.655,6 
		8.085,8.375 6.944,13.125 	"/>
</g>
<g>
	<rect x="8.482" y="18.656" class="st1" width="15.036" height="8.844"/>
</g>
<g>
	<rect x="8.482" y="11.375" class="st1" width="15.036" height="1.75"/>
</g>
<g>
	<path class="st0" d="M23.518,22.125H8.482v-3.469h-3V29c0,0.828,0.671,1.5,1.5,1.5h18.036c0.829,0,1.5-0.672,1.5-1.5V18.656h-3
		V22.125z M8.482,27.5v-2.375h15.036V27.5H8.482z"/>
	<path class="st0" d="M28.417,14.274L25.986,4.149C25.825,3.476,25.221,3,24.528,3H7.472C6.779,3,6.175,3.476,6.014,4.149
		L3.583,14.274c-0.107,0.447-0.004,0.918,0.281,1.279c0.246,0.312,0.607,0.503,0.998,0.551h0.62h3h15.036h3h0.62
		c0.391-0.048,0.752-0.238,0.998-0.551C28.421,15.192,28.524,14.722,28.417,14.274z M23.518,13.125H8.482H6.944l1.14-4.75L8.655,6
		h14.69l0.57,2.375l1.14,4.75H23.518z"/>
</g>
<g>
	<rect x="8.482" y="16.104" class="st2" width="15.036" height="0.021"/>
</g>
<g>
	<path class="st2" d="M5.482,16.125v-0.021h-0.62c0.06,0.007,0.119,0.021,0.18,0.021H5.482z"/>
</g>
<g>
	<path class="st2" d="M26.518,16.125h0.44c0.061,0,0.12-0.013,0.18-0.021h-0.62V16.125z"/>
</g>
<g>
	<rect x="23.518" y="16.104" class="st2" width="3" height="0.021"/>
</g>
<g>
	<rect x="5.482" y="16.104" class="st2" width="3" height="0.021"/>
</g>
</svg>
