<?xml version="1.0" encoding="utf-8"?>
<!-- Generator: Adobe Illustrator 19.2.1, SVG Export Plug-In . SVG Version: 6.00 Build 0)  -->
<svg version="1.1" id="Layer_1" xmlns="http://www.w3.org/2000/svg" xmlns:xlink="http://www.w3.org/1999/xlink" x="0px" y="0px"
	 viewBox="0 0 32 32" style="enable-background:new 0 0 32 32;" xml:space="preserve">
<style type="text/css">
	.st0{fill:#307DE7;}
	.st1{fill:none;}
	.st2{fill:#FFFFFF;}
</style>
<path class="st0" d="M21.159,14.888c0.797-0.946,1.279-2.165,1.279-3.496c0-2.998-2.439-5.438-5.438-5.438s-5.438,2.439-5.438,5.438
	c0,1.331,0.482,2.55,1.279,3.496c-2.712,1.479-4.556,4.356-4.556,7.657v2.83c0,0.829,0.672,1.5,1.5,1.5h14.43
	c0.828,0,1.5-0.671,1.5-1.5v-2.83C25.715,19.245,23.871,16.367,21.159,14.888z M14.562,11.393c0-1.344,1.094-2.438,2.438-2.438
	s2.438,1.093,2.438,2.438S18.344,13.83,17,13.83S14.562,12.737,14.562,11.393z M22.715,23.875h-11.43v-1.33
	c0-3.151,2.563-5.715,5.715-5.715s5.715,2.563,5.715,5.715V23.875z"/>
</svg>
