<?xml version="1.0" encoding="utf-8"?>
<!-- Generator: Adobe Illustrator 21.1.0, SVG Export Plug-In . SVG Version: 6.00 Build 0)  -->
<svg version="1.1" id="Layer_1" xmlns="http://www.w3.org/2000/svg" xmlns:xlink="http://www.w3.org/1999/xlink" x="0px" y="0px"
	 viewBox="0 0 24.4 27" style="enable-background:new 0 0 24.4 27;" xml:space="preserve">
<style type="text/css">
	.st0{fill:#97A8BE;}
</style>
<g>
	<g>
		<g>
			<path class="st0" d="M6.6,21.8c-0.2,0-0.4,0-0.6-0.1c-0.7-0.3-1-1.1-0.7-1.8l5.3-11.2c0.2-0.6,1.5-3.5,4.1-3.5h0.3
				c2.6,0,3.8,2.9,4.1,3.5l5.3,11.2c0.2,0.4,0.2,0.9-0.1,1.3c-0.3,0.4-0.7,0.6-1.2,0.6H12.3c-0.5,0-0.9-0.2-1.2-0.6
				c-0.3-0.4-0.3-0.9-0.1-1.3l1.9-4.3c0.3-0.7,1.1-1,1.8-0.7c0.7,0.3,1,1.1,0.7,1.8L14.4,19h6.4l-4.4-9.3c0,0,0-0.1,0-0.1
				c-0.3-0.7-1-1.8-1.5-1.8h-0.3c-0.6,0-1.3,1.1-1.5,1.8c0,0,0,0.1,0,0.1L7.8,21C7.6,21.5,7.1,21.8,6.6,21.8z"/>
		</g>
		<g>
			<path class="st0" d="M1.4,21.8c-0.2,0-0.4,0-0.6-0.1c-0.7-0.3-1-1.1-0.7-1.8l4.6-9.7c0.3-0.7,1.1-1,1.8-0.7
				c0.7,0.3,1,1.1,0.7,1.8L2.6,21C2.4,21.5,1.9,21.8,1.4,21.8z"/>
		</g>
	</g>
</g>
</svg>
