<?xml version="1.0" encoding="utf-8"?>
<!-- Generator: Adobe Illustrator 19.2.1, SVG Export Plug-In . SVG Version: 6.00 Build 0)  -->
<svg version="1.1" id="Layer_1" xmlns="http://www.w3.org/2000/svg" xmlns:xlink="http://www.w3.org/1999/xlink" x="0px" y="0px"
	 viewBox="0 0 32 32" style="enable-background:new 0 0 32 32;" xml:space="preserve">
<style type="text/css">
	.st0{fill:#307DE7;}
	.st1{fill:none;}
	.st2{fill:#FFFFFF;}
</style>
<g>
	<path class="st0" d="M10.284,4.927c-2.672,0-4.846,2.174-4.846,4.846c0,2.672,2.174,4.846,4.846,4.846
		c2.672,0,4.846-2.174,4.846-4.846C15.129,7.101,12.956,4.927,10.284,4.927z M10.284,11.619c-1.018,0-1.846-0.828-1.846-1.846
		c0-1.018,0.828-1.846,1.846-1.846c1.018,0,1.846,0.828,1.846,1.846C12.129,10.791,11.301,11.619,10.284,11.619z"/>
	<path class="st0" d="M23.284,14.619c2.672,0,4.846-2.174,4.846-4.846c0-2.672-2.174-4.846-4.846-4.846
		c-2.672,0-4.846,2.174-4.846,4.846C18.438,12.445,20.611,14.619,23.284,14.619z M23.284,7.927c1.018,0,1.846,0.828,1.846,1.846
		c0,1.018-0.828,1.846-1.846,1.846c-1.018,0-1.846-0.828-1.846-1.846C21.438,8.755,22.266,7.927,23.284,7.927z"/>
	<path class="st0" d="M10.284,16.928c-2.672,0-4.846,2.174-4.846,4.846s2.174,4.846,4.846,4.846c2.672,0,4.846-2.174,4.846-4.846
		S12.956,16.928,10.284,16.928z M10.284,23.619c-1.018,0-1.846-0.828-1.846-1.846s0.828-1.846,1.846-1.846
		c1.018,0,1.846,0.828,1.846,1.846S11.301,23.619,10.284,23.619z"/>
	<path class="st0" d="M23.284,16.928c-2.672,0-4.846,2.174-4.846,4.846s2.174,4.846,4.846,4.846c2.672,0,4.846-2.174,4.846-4.846
		S25.956,16.928,23.284,16.928z M23.284,23.619c-1.018,0-1.846-0.828-1.846-1.846s0.828-1.846,1.846-1.846
		c1.018,0,1.846,0.828,1.846,1.846S24.301,23.619,23.284,23.619z"/>
</g>
</svg>
