<?xml version="1.0" encoding="utf-8"?>
<!-- Generator: Adobe Illustrator 19.2.1, SVG Export Plug-In . SVG Version: 6.00 Build 0)  -->
<svg version="1.1" id="Layer_1" xmlns="http://www.w3.org/2000/svg" xmlns:xlink="http://www.w3.org/1999/xlink" x="0px" y="0px"
	 viewBox="0 0 32 32" style="enable-background:new 0 0 32 32;" xml:space="preserve">
<style type="text/css">
	.st0{fill:#307DE7;}
	.st1{fill:none;}
	.st2{fill:#FFFFFF;}
</style>
<g>
	<path class="st0" d="M16,6.18c-4.504,0-9.062,1.501-9.062,4.37v4v4v4c0,2.869,4.559,4.37,9.062,4.37
		c4.366,0,8.771-1.415,9.037-4.114h0.026V22.55v-4v-4v-4C25.062,7.681,20.504,6.18,16,6.18z M8.938,22.55
		c0-0.259,0.22-0.555,0.616-0.847c1.726,0.802,4.09,1.217,6.446,1.217s4.721-0.415,6.446-1.217c0.397,0.293,0.616,0.588,0.616,0.847
		c0,0.943-2.816,2.37-7.062,2.37S8.938,23.493,8.938,22.55z M16,8.18c4.246,0,7.062,1.426,7.062,2.37
		c0,0.259-0.22,0.555-0.616,0.847c-0.289,0.213-0.674,0.423-1.146,0.617c-0.492,0.202-1.073,0.387-1.739,0.535
		c-1.014,0.226-2.215,0.37-3.561,0.37s-2.546-0.144-3.561-0.37c-0.667-0.148-1.247-0.333-1.739-0.535
		c-0.472-0.194-0.858-0.405-1.146-0.617c-0.397-0.293-0.616-0.588-0.616-0.847C8.938,9.607,11.754,8.18,16,8.18z M23.062,14.55
		c0,0.259-0.22,0.555-0.616,0.847c-0.289,0.213-0.674,0.423-1.146,0.617c-0.492,0.202-1.073,0.387-1.739,0.535
		c-1.014,0.226-2.215,0.37-3.561,0.37s-2.546-0.144-3.561-0.37c-0.667-0.148-1.247-0.333-1.739-0.535
		c-0.472-0.194-0.858-0.405-1.146-0.617c-0.397-0.293-0.616-0.588-0.616-0.847s0.22-0.555,0.616-0.847
		c0.782,0.364,1.693,0.646,2.679,0.847c1.189,0.243,2.479,0.37,3.767,0.37s2.578-0.127,3.767-0.37
		c0.986-0.201,1.897-0.484,2.679-0.847C22.843,13.995,23.062,14.291,23.062,14.55z M23.062,18.55c0,0.259-0.22,0.555-0.616,0.847
		c-0.289,0.213-0.674,0.423-1.146,0.617c-0.492,0.202-1.073,0.387-1.739,0.535c-1.014,0.226-2.215,0.37-3.561,0.37
		s-2.546-0.144-3.561-0.37c-0.667-0.148-1.247-0.333-1.739-0.535c-0.472-0.194-0.858-0.405-1.146-0.617
		c-0.397-0.293-0.616-0.588-0.616-0.847s0.22-0.555,0.616-0.847c0.782,0.364,1.693,0.646,2.679,0.847
		c1.189,0.243,2.479,0.37,3.767,0.37s2.578-0.127,3.767-0.37c0.986-0.201,1.897-0.484,2.679-0.847
		C22.843,17.995,23.062,18.291,23.062,18.55z"/>
</g>
</svg>
