<?xml version="1.0" encoding="utf-8"?>
<!-- Generator: Adobe Illustrator 19.2.1, SVG Export Plug-In . SVG Version: 6.00 Build 0)  -->
<svg version="1.1" id="Layer_1" xmlns="http://www.w3.org/2000/svg" xmlns:xlink="http://www.w3.org/1999/xlink" x="0px" y="0px"
	 viewBox="0 0 32 32" style="enable-background:new 0 0 32 32;" xml:space="preserve">
<style type="text/css">
	.st0{fill:#307DE7;}
	.st1{fill:none;}
	.st2{fill:#FFFFFF;}
</style>
<g>
	<path class="st1" d="M9.288,19.743c0,2.872,2.337,5.208,5.209,5.208s5.208-2.336,5.208-5.208v-4.125H9.288V19.743z"/>
</g>
<g>
	<path class="st1" d="M14.497,6.285c-2.872,0-5.209,2.336-5.209,5.208v4.125h10.417v-4.125C19.705,8.621,17.369,6.285,14.497,6.285z
		"/>
</g>
<g>
	<path class="st0" d="M15.996,19.194v-7.153c0-0.829-0.672-1.5-1.5-1.5s-1.5,0.671-1.5,1.5v7.153c0,0.829,0.672,1.5,1.5,1.5
		S15.996,20.023,15.996,19.194z"/>
	<path class="st0" d="M15.734,1.376C10.661,0.63,6.288,4.56,6.288,9.493v3.528c0,0.329,0.267,0.597,0.597,0.597h1.518
		c0.489,0,0.885-0.396,0.885-0.885v-3.24c0-3.228,2.952-5.78,6.299-5.097c2.45,0.5,4.118,2.8,4.118,5.3v3.036
		c0,0.489,0.397,0.886,0.886,0.886h1.374c0.409,0,0.74-0.331,0.74-0.74V9.757C22.705,5.648,19.799,1.973,15.734,1.376z"/>
	<path class="st0" d="M21.994,17.618h-1.417c-0.482,0-0.872,0.391-0.872,0.872v3.021c0,2.718-1.982,5.15-4.688,5.414
		c-3.105,0.303-5.729-2.139-5.729-5.183v-3.392c0-0.405-0.328-0.733-0.733-0.733H7.11c-0.454,0-0.822,0.368-0.822,0.822v3.013
		c0,4.368,3.289,8.188,7.647,8.48c4.779,0.32,8.77-3.477,8.77-8.19v-3.414C22.705,17.936,22.386,17.618,21.994,17.618z"/>
</g>
</svg>
