<?xml version="1.0" encoding="utf-8"?>
<!-- Generator: Adobe Illustrator 16.0.0, SVG Export Plug-In . SVG Version: 6.00 Build 0)  -->
<!DOCTYPE svg PUBLIC "-//W3C//DTD SVG 1.1//EN" "http://www.w3.org/Graphics/SVG/1.1/DTD/svg11.dtd">
<svg version="1.1" id="圖層_1" xmlns="http://www.w3.org/2000/svg" xmlns:xlink="http://www.w3.org/1999/xlink" x="0px" y="0px"
	 width="24.945px" height="24.945px" viewBox="0 0 24.945 24.945" enable-background="new 0 0 24.945 24.945" xml:space="preserve">
<g>
	<path fill="#E1E7F1" d="M0.837,20.766l0.426-0.24c0.021-0.011,0.085-0.084,0.138-0.271l1.498-9.076
		c0.162-1.315,1.221-2.237,2.627-2.253l15.857-0.182l-0.014-1.002c-0.017-1.319-1.1-2.375-2.418-2.357l-8.283,0.107L8.359,3.31
		H2.357C1.039,3.328-0.018,4.411,0,5.729l0.173,13.427C0.182,19.783,0.436,20.345,0.837,20.766z"/>
	<g>
		<path fill="#9AACC3" d="M7.461,6.165c-0.07,0-0.142-0.03-0.191-0.089L6.84,5.564H2.131c-0.138,0-0.25-0.111-0.25-0.25
			c0-0.138,0.112-0.25,0.25-0.25h4.826c0.073,0,0.144,0.033,0.191,0.09l0.504,0.6c0.09,0.105,0.076,0.264-0.029,0.353
			C7.576,6.146,7.519,6.165,7.461,6.165z"/>
	</g>
	<g>
		<path fill="#90C2DF" d="M23.484,9.824L5.541,10.031c-0.797,0.008-1.324,0.506-1.424,1.31l-1.486,9.006
			c0,0.008,0.003,0.016,0.004,0.023c-0.117,0.531-0.357,0.891-0.716,1.093c0.286,0.112,0.602,0.178,0.933,0.173l1.24-0.014
			l2.872-0.032l15.071-0.175c0.797-0.01,1.311-0.486,1.423-1.309l1.487-9.007C24.935,10.386,24.282,9.815,23.484,9.824z
			 M18.217,16.58l-0.776,0.777c-0.216,0.217-0.503,0.336-0.808,0.336c-0.273,0-0.531-0.096-0.737-0.271v1.418
			c0,0.63-0.513,1.142-1.142,1.142h-1.102c-0.63,0-1.143-0.512-1.143-1.142v-1.417c-0.201,0.172-0.462,0.27-0.736,0.27
			c-0.305,0-0.592-0.119-0.808-0.336l-0.778-0.777c-0.216-0.215-0.335-0.503-0.335-0.809c0-0.305,0.119-0.593,0.336-0.809
			l3.181-3.125c0.242-0.24,0.529-0.359,0.834-0.359s0.592,0.119,0.808,0.334l3.202,3.146c0.221,0.22,0.34,0.508,0.34,0.813
			C18.553,16.077,18.434,16.365,18.217,16.58z"/>
		<path fill="#147AB2" d="M15.896,18.593v0.247c0,0.63-0.513,1.142-1.142,1.142h-1.102c-0.459,0-0.85-0.275-1.031-0.666
			c-5.186,0.953-9.99,1.03-9.99,1.03c0,0.008,0.003,0.016,0.004,0.023c-0.117,0.531-0.357,0.891-0.716,1.093
			c0.286,0.112,0.602,0.178,0.933,0.173l1.24-0.014l2.872-0.032l15.071-0.175c0.797-0.01,1.311-0.486,1.423-1.309l1.048-6.344
			C23.004,16.109,19.59,17.62,15.896,18.593z"/>
		<path fill-rule="evenodd" clip-rule="evenodd" fill="#90C2DF" d="M17.639,15.542l-3.178-3.12l-0.029-0.03
			c-0.063-0.063-0.146-0.094-0.229-0.094s-0.166,0.031-0.229,0.094l-0.03,0.03l-3.178,3.12c-0.126,0.127-0.126,0.331,0,0.457
			l0.778,0.778c0.126,0.126,0.33,0.126,0.456,0l1.329-1.306v3.368c0,0.179,0.145,0.322,0.322,0.322h1.102
			c0.178,0,0.322-0.144,0.322-0.322v-3.368l1.328,1.306c0.126,0.126,0.33,0.126,0.457,0L17.639,16
			C17.766,15.874,17.766,15.669,17.639,15.542z"/>
	</g>
</g>
</svg>
