<?xml version="1.0" encoding="utf-8"?>
<!-- Generator: Adobe Illustrator 16.0.0, SVG Export Plug-In . SVG Version: 6.00 Build 0)  -->
<!DOCTYPE svg PUBLIC "-//W3C//DTD SVG 1.1//EN" "http://www.w3.org/Graphics/SVG/1.1/DTD/svg11.dtd">
<svg version="1.1" id="圖層_1" xmlns="http://www.w3.org/2000/svg" xmlns:xlink="http://www.w3.org/1999/xlink" x="0px" y="0px"
	 width="24.945px" height="24.945px" viewBox="0 0 24.945 24.945" enable-background="new 0 0 24.945 24.945" xml:space="preserve">
<g>
	<path fill="#E1E7F1" d="M6.252,16.046H5.074c-0.625,0-1.131,0.48-1.131,1.068v4.918h3.439v-4.918
		C7.383,16.527,6.877,16.046,6.252,16.046z"/>
	<path fill="#147AB2" d="M15.438,17.496l-0.805-0.805c-0.223-0.223-0.346-0.52-0.346-0.834c0-0.316,0.123-0.613,0.346-0.836
		l1.383-1.36V6.138c0-1.777-1.447-3.225-3.225-3.225H4.186c-1.779,0-3.227,1.447-3.227,3.225v15.217
		c0,0.373,0.303,0.678,0.678,0.678h2.551v-4.918c0-0.27,0.246-0.49,0.551-0.49H6.68c0.305,0,0.553,0.221,0.553,0.49v4.918h8.107
		c0.373,0,0.676-0.305,0.676-0.678v-3.564C15.801,17.742,15.596,17.656,15.438,17.496z"/>
	<g>
		<g>
			<g>
				<path fill="#E1E7F1" d="M7.232,8.626c0,0.252-0.207,0.459-0.457,0.459H4.553c-0.254,0-0.457-0.207-0.457-0.459V6.404
					c0-0.253,0.203-0.458,0.457-0.458h2.223c0.25,0,0.457,0.205,0.457,0.458V8.626z"/>
			</g>
		</g>
		<g>
			<g>
				<path fill="#E1E7F1" d="M12.883,8.626c0,0.252-0.205,0.459-0.455,0.459h-2.223c-0.254,0-0.459-0.207-0.459-0.459V6.404
					c0-0.253,0.205-0.458,0.459-0.458h2.223c0.25,0,0.455,0.205,0.455,0.458V8.626z"/>
			</g>
		</g>
		<g>
			<g>
				<path fill="#E1E7F1" d="M7.232,13.669c0,0.25-0.207,0.458-0.457,0.458H4.553c-0.254,0-0.457-0.208-0.457-0.458v-2.222
					c0-0.253,0.203-0.459,0.457-0.459h2.223c0.25,0,0.457,0.206,0.457,0.459V13.669z"/>
			</g>
		</g>
		<g>
			<g>
				<path fill="#E1E7F1" d="M12.883,13.669c0,0.25-0.205,0.458-0.455,0.458h-2.223c-0.254,0-0.459-0.208-0.459-0.458v-2.222
					c0-0.253,0.205-0.459,0.459-0.459h2.223c0.25,0,0.455,0.206,0.455,0.459V13.669z"/>
			</g>
		</g>
		<g>
			<g>
				<path fill="#E1E7F1" d="M12.883,18.71c0,0.254-0.205,0.459-0.455,0.459h-2.223c-0.254,0-0.459-0.205-0.459-0.459V16.49
					c0-0.254,0.205-0.459,0.459-0.459h2.223c0.25,0,0.455,0.205,0.455,0.459V18.71z"/>
			</g>
		</g>
	</g>
	<g>
		<path fill="#90C2DF" d="M21.814,9.396h-4.406v2.899l0.512-0.505c0.25-0.249,0.547-0.372,0.861-0.372
			c0.316,0,0.611,0.123,0.836,0.346l3.309,3.25c0.229,0.229,0.352,0.525,0.352,0.842c0,0.314-0.123,0.611-0.348,0.834l-0.803,0.803
			c-0.223,0.225-0.52,0.348-0.834,0.348c-0.283,0-0.549-0.1-0.762-0.279v1.465c0,0.65-0.531,1.18-1.18,1.18h-1.139
			c-0.313,0-0.594-0.127-0.805-0.326v1.475c0,0.238-0.043,0.465-0.119,0.678h6.391c0.168,0,0.307-0.139,0.307-0.311l0.002-10.154
			C23.988,10.37,23.014,9.396,21.814,9.396z"/>
		<path fill-rule="evenodd" clip-rule="evenodd" fill="#147AB2" d="M22.332,15.621l-3.283-3.225l-0.031-0.031
			c-0.064-0.065-0.15-0.098-0.236-0.098c-0.084,0-0.17,0.032-0.236,0.098l-0.031,0.031l-3.283,3.225
			c-0.131,0.131-0.131,0.342,0,0.471l0.805,0.805c0.131,0.131,0.342,0.131,0.471,0l1.373-1.35v3.48c0,0.184,0.15,0.334,0.334,0.334
			h1.139c0.184,0,0.332-0.15,0.332-0.334v-3.48l1.373,1.35c0.131,0.131,0.342,0.131,0.471,0l0.805-0.805
			C22.463,15.962,22.463,15.751,22.332,15.621z"/>
	</g>
</g>
</svg>
