<?xml version="1.0" encoding="utf-8"?>
<!-- Generator: Adobe Illustrator 16.0.0, SVG Export Plug-In . SVG Version: 6.00 Build 0)  -->
<!DOCTYPE svg PUBLIC "-//W3C//DTD SVG 1.1//EN" "http://www.w3.org/Graphics/SVG/1.1/DTD/svg11.dtd">
<svg version="1.1" id="圖層_1" xmlns="http://www.w3.org/2000/svg" xmlns:xlink="http://www.w3.org/1999/xlink" x="0px" y="0px"
	 width="24.945px" height="24.945px" viewBox="0 0 24.945 24.945" enable-background="new 0 0 24.945 24.945" xml:space="preserve">
<g>
	<ellipse fill="#147AB2" cx="12.473" cy="7.251" rx="8.841" ry="4.339"/>
	<path fill="#9AACC3" d="M21.235,9.883c-0.244,0.293-0.532,0.565-0.857,0.816v0.004c-1.859,1.436-4.939,2.191-7.905,2.191
		c-2.969,0-6.052-0.757-7.91-2.195c-0.325-0.251-0.614-0.523-0.857-0.816l0.006,2.657c0,2.375,3.923,4.299,8.762,4.299
		s8.763-1.924,8.763-4.299c0-0.018-0.006-0.034-0.007-0.052L21.235,9.883z"/>
	<path fill="#9AACC3" d="M21.235,15.076c-0.244,0.294-0.532,0.565-0.857,0.817v0.003c-1.859,1.436-4.939,2.191-7.905,2.191
		c-2.969,0-6.052-0.757-7.91-2.194c-0.325-0.252-0.614-0.523-0.857-0.817l0.006,2.657c0,2.375,3.923,4.3,8.762,4.3
		s8.763-1.925,8.763-4.3c0-0.017-0.006-0.034-0.007-0.052L21.235,15.076z"/>
	<g>
		<path fill="#C6E7F9" d="M12.583,9.286c-0.35,0-0.708-0.008-1.076-0.025c-1.389-0.063-2.426-0.209-3.361-0.472
			C7.733,8.673,7.329,8.519,6.977,8.34c-0.12-0.06-0.482-0.242-0.474-0.565C6.511,7.458,6.864,7.301,6.981,7.25
			c0.126-0.053,0.273,0.002,0.329,0.128c0.056,0.127-0.002,0.274-0.128,0.33C7.106,7.741,7.061,7.769,7.032,7.79
			C7.062,7.814,7.113,7.85,7.201,7.894C7.526,8.058,7.899,8.201,8.28,8.307c0.898,0.252,1.9,0.392,3.249,0.454
			c1.724,0.077,3.226-0.03,4.59-0.33c0.514-0.111,1.057-0.298,1.661-0.568c0.057-0.025,0.096-0.048,0.121-0.064
			c-0.025-0.021-0.066-0.049-0.129-0.083c-0.121-0.067-0.165-0.219-0.099-0.34c0.067-0.121,0.218-0.166,0.34-0.099
			c0.107,0.06,0.436,0.239,0.423,0.543c-0.012,0.301-0.343,0.45-0.451,0.499c-0.637,0.285-1.212,0.481-1.76,0.601
			C15.112,9.165,13.913,9.286,12.583,9.286z"/>
	</g>
</g>
</svg>
