<?xml version="1.0" encoding="utf-8"?>
<!-- Generator: Adobe Illustrator 16.0.0, SVG Export Plug-In . SVG Version: 6.00 Build 0)  -->
<!DOCTYPE svg PUBLIC "-//W3C//DTD SVG 1.1//EN" "http://www.w3.org/Graphics/SVG/1.1/DTD/svg11.dtd">
<svg version="1.1" id="圖層_1" xmlns="http://www.w3.org/2000/svg" xmlns:xlink="http://www.w3.org/1999/xlink" x="0px" y="0px"
	 width="24.945px" height="24.945px" viewBox="0 0 24.945 24.945" enable-background="new 0 0 24.945 24.945" xml:space="preserve">
<g>
	<path fill="#E1E7F1" d="M0.838,20.765l0.426-0.24c0.021-0.012,0.084-0.084,0.138-0.271l1.498-9.076
		c0.162-1.316,1.22-2.237,2.626-2.253l15.857-0.183L21.37,7.74c-0.017-1.318-1.101-2.374-2.418-2.357L10.669,5.49L8.36,3.309H2.357
		C1.039,3.326-0.017,4.41,0,5.728l0.174,13.426C0.182,19.781,0.436,20.343,0.838,20.765z"/>
	<path fill="#90C2DF" d="M23.485,9.823L5.541,10.029c-0.796,0.009-1.323,0.506-1.423,1.311l-1.486,9.006
		c0,0.008,0.003,0.016,0.003,0.023C2.518,20.9,2.277,21.259,1.92,21.46c0.285,0.113,0.602,0.178,0.933,0.174l1.239-0.014
		l2.873-0.033l15.071-0.174c0.796-0.01,1.311-0.486,1.423-1.309l1.486-9.007C24.936,10.384,24.283,9.814,23.485,9.823z"/>
	<g>
		<path fill="#9AACC3" d="M7.462,6.164c-0.071,0-0.142-0.031-0.191-0.09l-0.43-0.511H2.132c-0.138,0-0.25-0.112-0.25-0.25
			s0.112-0.25,0.25-0.25h4.825c0.074,0,0.145,0.032,0.191,0.089l0.505,0.6c0.089,0.106,0.075,0.264-0.03,0.354
			C7.576,6.144,7.52,6.164,7.462,6.164z"/>
	</g>
	<path fill="#147AB2" d="M2.632,20.345c0,0.008,0.003,0.016,0.003,0.023C2.518,20.9,2.277,21.259,1.92,21.46
		c0.285,0.113,0.602,0.178,0.933,0.174l1.239-0.014l2.873-0.033l15.071-0.174c0.796-0.01,1.311-0.486,1.423-1.309l1.047-6.344
		C20.471,20.066,2.632,20.345,2.632,20.345z"/>
</g>
</svg>
