<?xml version="1.0" encoding="utf-8"?>
<!-- Generator: Adobe Illustrator 16.0.0, SVG Export Plug-In . SVG Version: 6.00 Build 0)  -->
<!DOCTYPE svg PUBLIC "-//W3C//DTD SVG 1.1//EN" "http://www.w3.org/Graphics/SVG/1.1/DTD/svg11.dtd">
<svg version="1.1" id="圖層_1" xmlns="http://www.w3.org/2000/svg" xmlns:xlink="http://www.w3.org/1999/xlink" x="0px" y="0px"
	 width="24.945px" height="24.945px" viewBox="0 0 24.945 24.945" enable-background="new 0 0 24.945 24.945" xml:space="preserve">
<g>
	<path fill="#E1E7F1" d="M0.837,20.765l0.426-0.24c0.021-0.01,0.085-0.084,0.139-0.271l1.498-9.076
		C3.062,9.862,4.12,8.941,5.526,8.926l15.856-0.182L21.37,7.741c-0.018-1.319-1.1-2.374-2.418-2.357l-8.283,0.107L8.36,3.311H2.357
		c-1.318,0.017-2.374,1.1-2.356,2.418l0.172,13.427C0.182,19.783,0.437,20.345,0.837,20.765z"/>
	<path fill="#90C2DF" d="M23.485,9.824L5.541,10.031c-0.796,0.008-1.323,0.506-1.423,1.309l-1.486,9.005
		c0,0.008,0.002,0.016,0.004,0.023c-0.117,0.531-0.357,0.891-0.717,1.094c0.287,0.111,0.602,0.178,0.934,0.172l1.239-0.014
		l2.872-0.031l15.072-0.176c0.797-0.01,1.311-0.486,1.422-1.309l1.487-9.005C24.935,10.386,24.282,9.814,23.485,9.824z"/>
	<g>
		<path fill="#9AACC3" d="M7.462,6.165c-0.071,0-0.143-0.03-0.191-0.089l-0.43-0.511H2.132c-0.139,0-0.25-0.112-0.25-0.25
			s0.111-0.25,0.25-0.25h4.825c0.073,0,0.144,0.033,0.191,0.089l0.505,0.6c0.089,0.106,0.075,0.264-0.03,0.353
			C7.576,6.146,7.519,6.165,7.462,6.165z"/>
	</g>
	<path fill="#147AB2" d="M2.632,20.345c0,0.008,0.002,0.016,0.004,0.023c-0.117,0.531-0.357,0.891-0.717,1.094
		c0.287,0.111,0.602,0.178,0.934,0.172l1.239-0.014l2.872-0.031l15.072-0.176c0.797-0.01,1.311-0.486,1.422-1.309l1.048-6.343
		C20.47,20.068,2.632,20.345,2.632,20.345z"/>
	<g>
		<path fill-rule="evenodd" clip-rule="evenodd" fill="#E1E7F1" d="M13.636,20.123c-0.652,0-1.182-0.529-1.182-1.18v-1.465
			c-0.209,0.18-0.478,0.279-0.762,0.279c-0.314,0-0.611-0.123-0.834-0.346l-0.805-0.805c-0.223-0.223-0.346-0.52-0.346-0.834
			c0-0.316,0.123-0.613,0.348-0.836l3.287-3.229c0.249-0.249,0.545-0.372,0.86-0.372s0.612,0.123,0.835,0.346l3.309,3.251
			c0.229,0.227,0.352,0.523,0.352,0.84c0,0.314-0.123,0.611-0.347,0.834l-0.803,0.805c-0.224,0.223-0.521,0.346-0.835,0.346
			c-0.282,0-0.549-0.1-0.762-0.279v1.465c0,0.65-0.529,1.18-1.18,1.18H13.636z"/>
		<path fill-rule="evenodd" clip-rule="evenodd" fill="#147AB2" d="M17.753,15.537l-3.282-3.224l-0.031-0.031
			c-0.065-0.065-0.15-0.098-0.236-0.098c-0.085,0-0.171,0.032-0.235,0.098l-0.031,0.031l-3.283,3.224
			c-0.131,0.131-0.131,0.342,0,0.471l0.805,0.805c0.129,0.131,0.34,0.131,0.471,0l1.372-1.348v3.479
			c0,0.184,0.149,0.334,0.335,0.334h1.137c0.184,0,0.334-0.15,0.334-0.334v-3.479l1.372,1.348c0.13,0.131,0.341,0.131,0.472,0
			l0.803-0.805C17.884,15.878,17.884,15.667,17.753,15.537z"/>
	</g>
</g>
</svg>
