<?xml version="1.0" encoding="utf-8"?>
<!-- Generator: Adobe Illustrator 16.0.0, SVG Export Plug-In . SVG Version: 6.00 Build 0)  -->
<!DOCTYPE svg PUBLIC "-//W3C//DTD SVG 1.1//EN" "http://www.w3.org/Graphics/SVG/1.1/DTD/svg11.dtd">
<svg version="1.1" id="圖層_1" xmlns="http://www.w3.org/2000/svg" xmlns:xlink="http://www.w3.org/1999/xlink" x="0px" y="0px"
	 width="24.945px" height="24.945px" viewBox="0 0 24.945 24.945" enable-background="new 0 0 24.945 24.945" xml:space="preserve">
<g>
	<path fill="#E1E7F1" d="M6.252,16.044H5.073c-0.624,0-1.13,0.48-1.13,1.07v4.918h3.439v-4.918
		C7.383,16.525,6.875,16.044,6.252,16.044z"/>
	<g>
		<path fill="#90C2DF" d="M23.678,22.033c0.17,0,0.307-0.139,0.307-0.311l0.002-10.154c0-1.199-0.975-2.172-2.173-2.172h-4.407
			v11.957c0,0.238-0.043,0.467-0.119,0.68H23.678z"/>
		<path fill="#147AB2" d="M15.338,22.033c0.373,0,0.678-0.305,0.678-0.68V6.138c0-1.778-1.447-3.226-3.227-3.226H4.186
			c-1.781,0-3.228,1.447-3.228,3.226v15.215c0,0.375,0.304,0.68,0.677,0.68h2.553v-4.918c0-0.27,0.246-0.49,0.551-0.49H6.68
			c0.305,0,0.551,0.221,0.551,0.49v4.918H15.338z"/>
		<g>
			<g>
				<path fill="#E1E7F1" d="M7.23,8.626c0,0.251-0.205,0.458-0.457,0.458H4.552c-0.253,0-0.457-0.207-0.457-0.458V6.404
					c0-0.254,0.204-0.459,0.457-0.459h2.222c0.252,0,0.457,0.205,0.457,0.459V8.626z"/>
			</g>
		</g>
		<g>
			<g>
				<path fill="#E1E7F1" d="M12.883,8.626c0,0.251-0.207,0.458-0.457,0.458h-2.223c-0.253,0-0.457-0.207-0.457-0.458V6.404
					c0-0.254,0.204-0.459,0.457-0.459h2.223c0.25,0,0.457,0.205,0.457,0.459V8.626z"/>
			</g>
		</g>
		<g>
			<g>
				<path fill="#E1E7F1" d="M7.23,13.668c0,0.252-0.205,0.458-0.457,0.458H4.552c-0.253,0-0.457-0.207-0.457-0.458v-2.221
					c0-0.254,0.204-0.459,0.457-0.459h2.222c0.252,0,0.457,0.205,0.457,0.459V13.668z"/>
			</g>
		</g>
		<g>
			<g>
				<path fill="#E1E7F1" d="M12.883,13.668c0,0.252-0.207,0.458-0.457,0.458h-2.223c-0.253,0-0.457-0.207-0.457-0.458v-2.221
					c0-0.254,0.204-0.459,0.457-0.459h2.223c0.25,0,0.457,0.205,0.457,0.459V13.668z"/>
			</g>
		</g>
		<g>
			<g>
				<path fill="#E1E7F1" d="M12.883,18.71c0,0.252-0.207,0.459-0.457,0.459h-2.223c-0.253,0-0.457-0.207-0.457-0.459v-2.223
					c0-0.252,0.204-0.457,0.457-0.457h2.223c0.25,0,0.457,0.205,0.457,0.457V18.71z"/>
			</g>
		</g>
		<g>
			<path fill="#147AB2" d="M22.327,14.451c0,0.252-0.205,0.459-0.458,0.459h-2.221c-0.254,0-0.458-0.207-0.458-0.459v-2.22
				c0-0.254,0.204-0.459,0.458-0.459h2.221c0.253,0,0.458,0.205,0.458,0.459V14.451z"/>
		</g>
		<g>
			<path fill="#147AB2" d="M22.327,19.492c0,0.254-0.205,0.459-0.458,0.459h-2.221c-0.254,0-0.458-0.205-0.458-0.459v-2.221
				c0-0.252,0.204-0.459,0.458-0.459h2.221c0.253,0,0.458,0.207,0.458,0.459V19.492z"/>
		</g>
	</g>
</g>
</svg>
