<?xml version="1.0" encoding="utf-8"?>
<!-- Generator: Adobe Illustrator 21.1.0, SVG Export Plug-In . SVG Version: 6.00 Build 0)  -->
<svg version="1.1" id="圖層_1" xmlns="http://www.w3.org/2000/svg" xmlns:xlink="http://www.w3.org/1999/xlink" x="0px" y="0px"
	 viewBox="0 0 24.9 24.9" style="enable-background:new 0 0 24.9 24.9;" xml:space="preserve">
<style type="text/css">
	.st0{fill:#FFFFFF;}
	.st1{fill:#90C2DF;}
	.st2{fill:#147AB2;}
</style>
<g>
	<path class="st0" d="M20.7,22.8H4.3c-0.6,0-1-0.4-1-1V3.2c0-0.6,0.4-1,1-1H16c0.6,0,5.7,5.1,5.7,6.2v13.4
		C21.7,22.4,21.2,22.8,20.7,22.8z"/>
	<g>
		<g>
			<path class="st1" d="M15.8,5.9c0,1.4,1.2,2.6,2.6,2.6h3.4l-6-6.6V5.9z"/>
			<path class="st1" d="M15.8,1.5H4.2c-0.9,0-1.7,0.8-1.7,1.7v16.6v0.6v1.5c0,0.9,0.8,1.7,1.7,1.7h16.6c0.9,0,1.7-0.8,1.7-1.7v-1.5
				v-0.6V8.4C22.5,7.3,16.7,1.5,15.8,1.5z M21.1,20.3v1.5c0,0.2-0.1,0.3-0.3,0.3H4.2c-0.2,0-0.3-0.1-0.3-0.3v-1.5v-0.6V3.2
				c0-0.2,0.1-0.3,0.3-0.3h11.5c0.6,0.3,5,5,5.3,5.6v11.3V20.3z"/>
		</g>
		<g>
			<g>
				<g>
					<path class="st2" d="M15.5,7.7v1.1h-3.3v10.3H8.9V8.9H5.5V7.7H15.5z"/>
				</g>
				<g>
					<path class="st2" d="M5.5,8.3h1.1v2.4H5.5V8.3z"/>
				</g>
				<g>
					<path class="st2" d="M14.3,8.3h1.1v2.4h-1.1V8.3z"/>
				</g>
			</g>
			<g>
				<path class="st2" d="M13.5,18v1.1h-6V18H13.5z"/>
			</g>
		</g>
		<g>
			<g>
				<g>
					<path class="st2" d="M19.6,12.5v0.7h-2v6h-1.9v-6h-2v-0.7H19.6z"/>
				</g>
				<g>
					<path class="st2" d="M13.8,12.8h0.7v1.4h-0.7V12.8z"/>
				</g>
				<g>
					<path class="st2" d="M18.9,12.8h0.7v1.4h-0.7V12.8z"/>
				</g>
			</g>
			<g>
				<path class="st2" d="M18.4,18.5v0.7h-3.5v-0.7H18.4z"/>
			</g>
		</g>
	</g>
</g>
</svg>
