<?xml version="1.0" encoding="utf-8"?>
<!-- Generator: Adobe Illustrator 21.1.0, SVG Export Plug-In . SVG Version: 6.00 Build 0)  -->
<svg version="1.1" id="圖層_1" xmlns="http://www.w3.org/2000/svg" xmlns:xlink="http://www.w3.org/1999/xlink" x="0px" y="0px"
	 viewBox="0 0 24.9 24.9" style="enable-background:new 0 0 24.9 24.9;" xml:space="preserve">
<style type="text/css">
	.st0{fill:#FFFFFF;}
	.st1{fill:#90C2DF;}
	.st2{fill:#030000;}
	.st3{fill:#147AB2;}
</style>
<g>
	<g>
		<path class="st0" d="M19.8,22.8H5.1c-0.6,0-1-0.5-1-1V3.2c0-0.5,0.4-1,1-1H17c1.5,0,3.8,2.4,3.8,3.9v15.7
			C20.8,22.4,20.3,22.8,19.8,22.8z"/>
		<path class="st1" d="M4.9,3.2C4.9,3,5,2.9,5.2,2.9h12.2c0.6,0.3,2.4,2,2.7,2.5v2.8h1.4V5.3c0-1-3.2-3.8-4-3.8H5.2
			c-0.9,0-1.7,0.8-1.7,1.7v5h1.4V3.2z M20.1,5.5C20.1,5.5,20.1,5.5,20.1,5.5S20.1,5.5,20.1,5.5z"/>
	</g>
	<polygon class="st2" points="12.2,14.2 12.2,14.2 12.2,14.2 	"/>
	<path class="st3" d="M21.5,17.9h-18c-0.5,0-1-0.4-1-1v-6.4c0-0.6,0.5-1,1-1h18c0.5,0,1,0.4,1,1v6.4C22.5,17.4,22,17.9,21.5,17.9z"
		/>
	<path class="st1" d="M20.1,21.8c0,0.2-0.1,0.3-0.3,0.3H5.2c-0.2,0-0.3-0.1-0.3-0.3v-2.6H3.5v2.6c0,0.9,0.8,1.7,1.7,1.7h14.6
		c0.9,0,1.7-0.8,1.7-1.7v-2.6h-1.4V21.8z"/>
	<g>
		<path class="st0" d="M4.1,16.9v-6.2H7c1.6,0,2.5,0.6,2.5,1.8c0,1.2-0.9,1.8-2.7,1.8H6.1v2.5H4.1z M6.1,13.8h0.4
			c0.7,0,1.1-0.4,1.1-1.3c0-0.8-0.4-1.2-1.1-1.2H6.1V13.8z"/>
		<path class="st0" d="M10.2,16.9v-6.2h2.8c2,0,3,1,3,3.1c0,2.1-1,3.1-3.1,3.1H10.2z M12.1,16.4h0.5c0.5,0,0.8-0.2,1-0.6
			c0.2-0.4,0.3-1,0.3-2c0-1-0.1-1.7-0.3-2c-0.2-0.4-0.5-0.6-1-0.6h-0.5V16.4z"/>
		<path class="st0" d="M21.1,10.7v0.6h-2.4v2.1h2.1V14h-2.1v2.9h-1.9v-6.2H21.1z"/>
	</g>
</g>
</svg>
