<?xml version="1.0" encoding="utf-8"?>
<!-- Generator: Adobe Illustrator 21.1.0, SVG Export Plug-In . SVG Version: 6.00 Build 0)  -->
<svg version="1.1" id="圖層_1" xmlns="http://www.w3.org/2000/svg" xmlns:xlink="http://www.w3.org/1999/xlink" x="0px" y="0px"
	 viewBox="0 0 24.9 24.9" style="enable-background:new 0 0 24.9 24.9;" xml:space="preserve">
<style type="text/css">
	.st0{fill:#FFFFFF;}
	.st1{fill:#90C2DF;}
	.st2{fill:#147AB2;}
</style>
<path class="st0" d="M20.8,22.8H4.5c-0.6,0-1-0.4-1-1V3.2c0-0.6,0.4-1,1-1h11.7c0.6,0,5.7,5.1,5.7,6.2v13.4
	C21.8,22.4,21.4,22.8,20.8,22.8z"/>
<g>
	<path class="st1" d="M15.8,5.9c0,1.4,1.2,2.6,2.6,2.6h3.4l-6-6.6V5.9z"/>
	<path class="st1" d="M15.8,1.5H4.2c-0.9,0-1.7,0.8-1.7,1.7v16.6v0.6v1.5c0,0.9,0.8,1.7,1.7,1.7h16.6c0.9,0,1.7-0.8,1.7-1.7v-1.5
		v-0.6V8.4C22.5,7.3,16.7,1.5,15.8,1.5z M21.1,20.3v1.5c0,0.2-0.1,0.3-0.3,0.3H4.2c-0.2,0-0.3-0.1-0.3-0.3v-1.5v-0.6V3.2
		c0-0.2,0.1-0.3,0.3-0.3h11.5c0.6,0.3,5,5,5.3,5.6v11.3V20.3z"/>
</g>
<g>
	<polygon class="st2" points="13.4,13 13.4,20.2 15.3,18.3 16.6,20.9 17.6,20.4 16.3,17.9 18.8,17.9 	"/>
	<path class="st2" d="M18.9,14.5c0-0.1,0-0.1,0-0.2c0,0,0-0.1,0-0.1c0-0.1,0-0.1,0-0.2c0-0.1,0-0.1,0-0.2c0-0.1,0-0.1,0-0.2
		c0-0.1,0-0.2,0-0.3c0-0.1,0-0.2,0-0.3c0-0.1,0-0.1,0-0.2c0,0,0-0.1,0-0.1c0-0.1,0-0.2,0-0.3c0,0,0,0,0,0c0-0.1,0-0.2,0-0.3
		c0,0,0,0,0,0v0c-0.5-2.9-3-5.2-6-5.5c0,0,0,0,0,0c-0.1,0-0.2,0-0.3,0c-0.1,0-0.2,0-0.3,0c-0.1,0-0.2,0-0.3,0c-0.1,0-0.2,0-0.3,0
		c0,0,0,0,0,0c-3,0.3-5.5,2.6-6,5.5l0,0c0,0,0,0,0,0c0,0.1,0,0.2,0,0.3c0,0,0,0,0,0c0,0.1,0,0.2,0,0.3c0,0,0,0.1,0,0.1
		c0,0.1,0,0.1,0,0.2c0,0.1,0,0.2,0,0.3c0,0.1,0,0.2,0,0.3c0,0.1,0,0.1,0,0.2c0,0,0,0.1,0,0.1c0,0.1,0,0.2,0,0.3c0,0,0,0,0,0
		c0,0.1,0,0.2,0,0.3c0,0,0,0,0,0l0,0c0.5,2.8,2.7,4.9,5.4,5.4l0,0c0,0,0,0,0.1,0c0.1,0,0.1,0,0.2,0c0,0,0.1,0,0.1,0
		c0.1,0,0.1,0,0.2,0c0.1,0,0.1,0,0.2,0c0,0,0.1,0,0.1,0c0.1,0,0.2,0,0.3,0c0,0,0,0,0,0V20v-1.5c0,0,0,0,0,0c-0.3,0-0.6,0-0.9-0.1
		c-0.2-0.7-0.4-1.6-0.5-2.7c0.5,0,0.9,0,1.4,0c0,0,0,0,0,0v-0.9c0,0,0,0,0,0c-0.5,0-1,0-1.5-0.1c0-0.5,0-1,0-1.5c0-0.5,0-1,0-1.5
		c0.5,0,1,0,1.5,0c0.5,0,1,0,1.5,0c0,0,0,0.1,0,0.1c0.1,0,0.3,0.1,0.4,0.2l0.6,0.5c0-0.2,0-0.5,0-0.7c1.1,0.1,2,0.3,2.7,0.6
		c0,0.3,0.1,0.6,0.1,0.9c0,0.3,0,0.6-0.1,0.9c-0.2,0.1-0.4,0.1-0.7,0.2l0.5,0.5c0,0,0,0,0,0l1.2,1.1C18.6,15.6,18.8,15.1,18.9,14.5
		C18.9,14.6,18.9,14.6,18.9,14.5C18.9,14.6,18.9,14.5,18.9,14.5z M10.4,8.6C10.2,9.3,10,10.1,9.9,11c-0.9,0.1-1.7,0.2-2.5,0.4
		C8,10.2,9.1,9.1,10.4,8.6z M10.4,18.2c-1.3-0.5-2.4-1.6-2.9-2.9c0.7,0.2,1.5,0.3,2.5,0.4C10,16.6,10.2,17.4,10.4,18.2z M9.9,14.8
		c-1.1-0.1-2-0.3-2.7-0.5c0-0.3-0.1-0.6-0.1-0.9c0-0.3,0-0.6,0.1-0.9c0.7-0.2,1.6-0.4,2.7-0.6c0,0.5,0,0.9,0,1.4
		C9.8,13.9,9.8,14.3,9.9,14.8z M12.3,10.9c-0.5,0-1,0-1.4,0c0.1-1.1,0.3-2,0.5-2.7c0.3,0,0.6-0.1,0.9-0.1c0.3,0,0.6,0,0.9,0.1
		c0.2,0.7,0.4,1.6,0.5,2.7C13.2,10.9,12.8,10.9,12.3,10.9z M14.6,11c-0.1-0.9-0.2-1.7-0.4-2.5c1.3,0.5,2.4,1.6,2.9,2.9
		C16.3,11.3,15.5,11.1,14.6,11z"/>
</g>
</svg>
