<?xml version="1.0" encoding="utf-8"?>
<!-- Generator: Adobe Illustrator 21.1.0, SVG Export Plug-In . SVG Version: 6.00 Build 0)  -->
<svg version="1.1" id="圖層_1" xmlns="http://www.w3.org/2000/svg" xmlns:xlink="http://www.w3.org/1999/xlink" x="0px" y="0px"
	 viewBox="0 0 24.9 24.9" style="enable-background:new 0 0 24.9 24.9;" xml:space="preserve">
<style type="text/css">
	.st0{fill:#FFFFFF;}
	.st1{fill:#90C2DF;}
	.st2{fill:#147AB2;}
</style>
<g>
	<path class="st0" d="M18.9,22.7H6.1c-1.6,0-3-1.4-3-3V5.3c0-1.7,1.4-3,3-3h12.8c1.7,0,3,1.4,3,3v14.5
		C21.9,21.4,20.6,22.7,18.9,22.7z"/>
	<g>
		<path class="st1" d="M18.9,23.5H6.1c-2,0-3.6-1.6-3.6-3.7V5.2c0-2,1.6-3.7,3.6-3.7h12.8c2,0,3.6,1.6,3.6,3.7v14.7
			C22.5,21.9,20.9,23.5,18.9,23.5z M6.1,2.7c-1.3,0-2.4,1.1-2.4,2.4v14.7c0,1.3,1.1,2.4,2.4,2.4h12.8c1.3,0,2.4-1.1,2.4-2.4V5.2
			c0-1.3-1.1-2.4-2.4-2.4H6.1z"/>
	</g>
	<polygon class="st2" points="5.8,13.6 7.9,8.7 10.7,11.1 14.8,5 20.2,13.6 13,15.8 	"/>
	<circle class="st2" cx="8.8" cy="6.2" r="1.5"/>
	<path class="st1" d="M3.1,13.5v6.4c0,1.6,1.3,3,2.9,3h13c1.6,0,2.9-1.3,2.9-3v-6.4H3.1z"/>
	<g>
		<g>
			<path class="st0" d="M8.2,15.2v3.9c0,1.5-0.6,2.3-1.7,2.3c-0.5,0-1-0.1-1.3-0.4c-0.4-0.3-0.5-0.6-0.5-1c0-0.2,0.1-0.5,0.2-0.9
				l0.7-0.2c-0.1,0.4-0.2,0.7-0.2,0.9c0,0.7,0.2,1,0.6,1c0.2,0,0.4-0.3,0.4-0.9v-4.7H8.2z"/>
			<path class="st0" d="M9.3,21.2v-6h2.8c1.6,0,2.4,0.6,2.4,1.8c0,1.2-0.9,1.8-2.7,1.8h-0.7v2.5H9.3z M11.2,18.2h0.4
				c0.7,0,1-0.4,1-1.3c0-0.8-0.3-1.2-1-1.2h-0.4V18.2z"/>
			<path class="st0" d="M17.7,18h2.7v3.3h-0.6l-0.2-0.4c-0.5,0.3-1.1,0.5-1.7,0.5c-1,0-1.7-0.3-2.3-0.8s-0.8-1.3-0.8-2.3
				c0-0.9,0.3-1.7,0.9-2.3c0.6-0.6,1.3-0.9,2.2-0.9c1.2,0,1.9,0.6,2.2,1.7l-0.9,0.4V17l0-0.3c-0.1-0.7-0.4-1.1-1.1-1.1
				c-0.5,0-0.8,0.2-1,0.6c-0.2,0.4-0.3,1.1-0.3,2.1c0,1,0.1,1.6,0.2,2c0.1,0.3,0.4,0.5,0.8,0.5c0.5,0,0.7-0.2,0.7-0.7v-1.5h-0.9V18z
				"/>
		</g>
	</g>
</g>
</svg>
