<?xml version="1.0" encoding="utf-8"?>
<!-- Generator: Adobe Illustrator 21.1.0, SVG Export Plug-In . SVG Version: 6.00 Build 0)  -->
<svg version="1.1" id="圖層_1" xmlns="http://www.w3.org/2000/svg" xmlns:xlink="http://www.w3.org/1999/xlink" x="0px" y="0px"
	 viewBox="0 0 24.9 24.9" style="enable-background:new 0 0 24.9 24.9;" xml:space="preserve">
<style type="text/css">
	.st0{fill:#FFFFFF;}
	.st1{fill:#90C2DF;}
</style>
<g>
	<path class="st0" d="M19.8,22.7H5.2c-0.6,0-1-0.4-1-1V3.1c0-0.5,0.4-1,1-1h10.3c0.6,0,5.3,5.3,5.3,5.9v13.8
		C20.8,22.3,20.3,22.7,19.8,22.7z"/>
	<g>
		<path class="st1" d="M15.5,5.8c0,1.4,1,2.6,2.3,2.6h3.1l-5.4-6.6V5.8z"/>
		<path class="st1" d="M15.5,1.4H5c-0.9,0-1.5,0.8-1.5,1.7v16.6v0.6v1.5c0,0.9,0.7,1.7,1.5,1.7h14.9c0.9,0,1.5-0.8,1.5-1.7v-1.5
			v-0.6V8.3C21.5,7.2,16.3,1.4,15.5,1.4z M20.2,20.2v1.5c0,0.2-0.1,0.3-0.3,0.3H5c-0.1,0-0.3-0.1-0.3-0.3v-1.5v-0.6V3.1
			c0-0.2,0.1-0.3,0.3-0.3h10.4c0.5,0.3,4.5,5,4.8,5.6v11.3V20.2z"/>
	</g>
	<g>
		<g>
			<path class="st1" d="M13,7.2H7.5c-0.3,0-0.6-0.3-0.6-0.6S7.2,6,7.5,6H13c0.3,0,0.6,0.3,0.6,0.6S13.3,7.2,13,7.2z"/>
		</g>
		<g>
			<path class="st1" d="M17.5,13.2h-10c-0.3,0-0.6-0.3-0.6-0.6S7.2,12,7.5,12h10c0.3,0,0.6,0.3,0.6,0.6S17.8,13.2,17.5,13.2z"/>
		</g>
		<g>
			<path class="st1" d="M17.5,19.2h-10c-0.3,0-0.6-0.3-0.6-0.6S7.2,18,7.5,18h10c0.3,0,0.6,0.3,0.6,0.6S17.8,19.2,17.5,19.2z"/>
		</g>
	</g>
</g>
</svg>
