<?xml version="1.0" encoding="utf-8"?>
<!-- Generator: Adobe Illustrator 21.1.0, SVG Export Plug-In . SVG Version: 6.00 Build 0)  -->
<svg version="1.1" id="圖層_1" xmlns="http://www.w3.org/2000/svg" xmlns:xlink="http://www.w3.org/1999/xlink" x="0px" y="0px"
	 viewBox="0 0 24.9 24.9" style="enable-background:new 0 0 24.9 24.9;" xml:space="preserve">
<style type="text/css">
	.st0{fill:#FFFFFF;}
	.st1{fill:#90C2DF;}
	.st2{fill:#147AB2;}
</style>
<g>
	<path class="st0" d="M19,22.7H6.2c-1.6,0-3-1.4-3-3V5.3c0-1.7,1.4-3,3-3H19c1.7,0,3,1.4,3,3v14.5C22,21.4,20.7,22.7,19,22.7z"/>
	<g>
		<path class="st1" d="M18.9,23.5H6.1c-2,0-3.6-1.6-3.6-3.7V5.2c0-2,1.6-3.7,3.6-3.7h12.8c2,0,3.6,1.6,3.6,3.7v14.7
			C22.5,21.9,20.9,23.5,18.9,23.5z M6.1,2.7c-1.3,0-2.4,1.1-2.4,2.4v14.7c0,1.3,1.1,2.4,2.4,2.4h12.8c1.3,0,2.4-1.1,2.4-2.4V5.2
			c0-1.3-1.1-2.4-2.4-2.4H6.1z"/>
	</g>
	<polygon class="st2" points="5.8,13.6 7.9,8.7 10.7,11.1 14.8,5 20.2,13.6 13,15.8 	"/>
	<circle class="st2" cx="8.8" cy="6.2" r="1.5"/>
	<path class="st1" d="M3.1,13.5v6.4c0,1.6,1.3,3,2.9,3h13c1.6,0,2.9-1.3,2.9-3v-6.4H3.1z"/>
	<g>
		<g>
			<path class="st0" d="M8.9,15.2v0.6H7.3v5.4h-2v-5.4H3.6v-0.6H8.9z"/>
			<path class="st0" d="M11.3,15.2v6H9.4v-6H11.3z"/>
			<path class="st0" d="M16.7,15.2v0.6h-2.4v2h2v0.6h-2v2.8h-1.9v-6H16.7z"/>
			<path class="st0" d="M21.6,15.2v0.6h-2.4v2h2v0.6h-2v2.8h-1.9v-6H21.6z"/>
		</g>
	</g>
</g>
</svg>
